<?xml version="1.0" encoding="UTF-8"?>
<svg width="39px" height="25px" viewBox="0 0 39 25" version="1.1" xmlns="http://www.w3.org/2000/svg" xmlns:xlink="http://www.w3.org/1999/xlink">
    <!-- Generator: Sketch 62 (91390) - https://sketch.com -->
    <title>behance-logo</title>
    <desc>Created with Sketch.</desc>
    <g id="Page-1" stroke="none" stroke-width="1" fill="none" fill-rule="evenodd">
        <g id="Work-page---7-seas" transform="translate(-619.000000, -9730.000000)" fill="#000000" fill-rule="nonzero">
            <g id="Group-9" transform="translate(-2.000000, 9302.000000)">
                <g id="Group-3" transform="translate(613.000000, 413.000000)">
                    <g id="behance-logo" transform="translate(8.000000, 15.000000)">
                        <path d="M15.5272788,10.9565933 C15.5272788,10.9565933 19.1677397,10.6847486 19.1677397,6.38976404 C19.1677397,2.09518339 16.1891077,0 12.4157188,0 L5.4705305,0 L5.26652011,0 L0,0 L0,23.9990796 L5.26652011,23.9990796 L5.4705305,23.9990796 L12.4157188,23.9990796 C12.4157188,23.9990796 19.9950259,24.2402257 19.9950259,16.9157683 C19.9954275,16.9157683 20.3259404,10.9565933 15.5272788,10.9565933 Z M5.4705305,4.26590164 L11.5221693,4.26590164 L12.4161203,4.26590164 C12.4161203,4.26590164 14.1040252,4.26590164 14.1040252,6.76259116 C14.1040252,9.25928068 13.1108801,9.6212017 11.9856102,9.6212017 L5.4705305,9.6212017 L5.4705305,4.26590164 Z M12.0956473,19.7343898 L5.4705305,19.7343898 L5.4705305,13.3203782 L12.4157188,13.3203782 C12.4157188,13.3203782 14.9313114,13.2880756 14.9313114,16.6164564 C14.9313114,19.3918574 13.0916036,19.7065186 12.0956473,19.7343898 Z" id="Shape"></path>
                        <rect id="Rectangle" x="25" y="2" width="10" height="3"></rect>
                        <path d="M30.4134427,7 C21,7 21.0083524,16.0189911 21.0083524,16.0189911 C21.0083524,16.0189911 20.3631636,24.9933338 30.4138547,24.9933338 C30.4138547,24.9933338 38.790186,25.4524623 38.790186,18.7500551 L34.4823349,18.7500551 C34.4823349,18.7500551 34.6261222,21.275262 30.557642,21.275262 C30.557642,21.275262 26.2502029,21.5514504 26.2502029,17.1897294 L38.9335613,17.1897294 C38.9335613,17.1897294 40.3211705,7 30.4134427,7 Z M34.2425673,14.056434 L26.2015872,14.056434 C26.2015872,14.056434 26.7277086,10.4379323 30.5090262,10.4379323 C34.2907559,10.4375371 34.2425673,14.056434 34.2425673,14.056434 Z" id="Shape"></path>
                    </g>
                </g>
            </g>
        </g>
    </g>
</svg>