<svg width="381" height="347" viewBox="0 0 381 347" fill="none" xmlns="http://www.w3.org/2000/svg">
<path d="M22 185C22 117 69.587 22 192.112 22C317.806 22 360 119.55 360 185.85" stroke="#1F4E5F" stroke-width="12.6" stroke-linecap="round" stroke-linejoin="round"/>
<path d="M37 171.5H6.5V202H37V171.5Z" fill="#0881A3"/>
<path d="M37 171.5H6.5V202H37V171.5Z" stroke="#0881A3" stroke-width="12.6" stroke-linecap="round" stroke-linejoin="round"/>
<path d="M37 171.5H6.5V202H37V171.5Z" stroke="#0881A3" stroke-width="12.6" stroke-linecap="round" stroke-linejoin="round"/>
<path d="M37 171.5H6.5V202H37V171.5Z" fill="#0881A3"/>
<path d="M374.5 171.5H344V202H374.5V171.5Z" fill="#0881A3"/>
<path d="M374.5 171.5H344V202H374.5V171.5Z" stroke="#0881A3" stroke-width="12.6" stroke-linecap="round" stroke-linejoin="round"/>
<path d="M47 13.75H31.5V29.25H47V13.75ZM352 13.75H336.5V29.25H352V13.75ZM39 22H345.5H39ZM207 6.5H176.5V37H207V6.5Z" stroke="#0881A3" stroke-width="12.6" stroke-linecap="round" stroke-linejoin="round"/>
<path d="M207 6.5H176.5V37H207V6.5Z" fill="#0881A3"/>
<path d="M192.5 100V200M192.5 99.5L132 190L151.5 260H230.5L251.5 191L192.5 99.5Z" stroke="#0881A3" stroke-width="12.6" stroke-linecap="round" stroke-linejoin="round"/>
<path d="M192.25 196C190.99 196 189.782 196.5 188.891 197.391C188 198.282 187.5 199.49 187.5 200.75C187.5 202.01 188 203.218 188.891 204.109C189.782 205 190.99 205.5 192.25 205.5C193.51 205.5 194.718 205 195.609 204.109C196.5 203.218 197 202.01 197 200.75C197 199.49 196.5 198.282 195.609 197.391C194.718 196.5 193.51 196 192.25 196V196Z" stroke="#0881A3" stroke-width="12.6"/>
<path d="M239 259.5H141V290H239V259.5ZM232 290H151V340.5H232V290Z" stroke="#1F4E5F" stroke-width="12.6" stroke-linecap="round" stroke-linejoin="round"/>
</svg>
