<?xml version="1.0" encoding="UTF-8"?>
<svg width="32px" height="30px" viewBox="0 0 32 30" version="1.1" xmlns="http://www.w3.org/2000/svg" xmlns:xlink="http://www.w3.org/1999/xlink">
    <!-- Generator: Sketch 62 (91390) - https://sketch.com -->
    <title>iconmonstr-linkedin-1</title>
    <desc>Created with Sketch.</desc>
    <g id="Page-1" stroke="none" stroke-width="1" fill="none" fill-rule="evenodd">
        <g id="Work-page---7-seas" transform="translate(-531.000000, -9729.000000)" fill="#000000" fill-rule="nonzero">
            <g id="Group-9" transform="translate(-2.000000, 9302.000000)">
                <g id="Group-4" transform="translate(521.000000, 414.000000)">
                    <g id="iconmonstr-linkedin-1" transform="translate(12.000000, 13.000000)">
                        <path d="M6.49565217,3.26086957 C6.49565217,5.06217391 5.04782609,6.52173913 3.26086957,6.52173913 C1.47391304,6.52173913 0.0260869565,5.06217391 0.0260869565,3.26086957 C0.0260869565,1.46086957 1.47391304,0 3.26086957,0 C5.04782609,0 6.49565217,1.46086957 6.49565217,3.26086957 Z M6.52173913,9.13043478 L0,9.13043478 L0,30 L6.52173913,30 L6.52173913,9.13043478 Z M16.9330435,9.13043478 L10.4530435,9.13043478 L10.4530435,30 L16.9343478,30 L16.9343478,19.0447826 C16.9343478,12.9534783 24.7982609,12.4552174 24.7982609,19.0447826 L24.7982609,30 L31.3043478,30 L31.3043478,16.7856522 C31.3043478,6.5073913 19.6669565,6.88173913 16.9330435,11.9413043 L16.9330435,9.13043478 Z" id="Shape"></path>
                    </g>
                </g>
            </g>
        </g>
    </g>
</svg>