<?xml version="1.0" encoding="UTF-8"?>
<svg width="43px" height="30px" viewBox="0 0 43 30" version="1.1" xmlns="http://www.w3.org/2000/svg" xmlns:xlink="http://www.w3.org/1999/xlink">
    <!-- Generator: Sketch 62 (91390) - https://sketch.com -->
    <title>Shape</title>
    <desc>Created with Sketch.</desc>
    <g id="Page-1" stroke="none" stroke-width="1" fill="none" fill-rule="evenodd">
        <g id="Work-page---7-seas" transform="translate(-709.000000, -9728.000000)" fill="#000000" fill-rule="nonzero">
            <g id="Group-9" transform="translate(-2.000000, 9302.000000)">
                <g id="Group-5" transform="translate(705.000000, 413.000000)">
                    <g id="youtube" transform="translate(6.000000, 13.000000)">
                        <path d="M41.7875,4.73567707 C41.2958333,2.90781253 39.8546875,1.46692707 38.0270833,0.9747396 C34.6882813,0.0611979333 21.3328125,0.0611979333 21.3328125,0.0611979333 C21.3328125,0.0611979333 7.9778646,0.0611979333 4.63906253,0.940104133 C2.8466146,1.4317708 1.37031253,2.90807293 0.878645867,4.73567707 C-1.18423789e-16,8.07421873 -1.18423789e-16,14.9979167 -1.18423789e-16,14.9979167 C-1.18423789e-16,14.9979167 -1.18423789e-16,21.9565104 0.878645867,25.2601563 C1.37083333,27.0877604 2.81145833,28.5286459 4.63932293,29.0208333 C8.0130208,29.9346354 21.3333333,29.9346354 21.3333333,29.9346354 C21.3333333,29.9346354 34.6882813,29.9346354 38.0270833,29.0557292 C39.8549479,28.5638021 41.2958333,27.1229167 41.7880208,25.2953125 C42.6665856,21.9565104 42.6665856,15.0330729 42.6665856,15.0330729 C42.6665856,15.0330729 42.7015625,8.07421873 41.7875,4.73567707 L41.7875,4.73567707 Z M17.0807292,21.3942708 L17.0807292,8.60156253 L28.1864583,14.9979167 L17.0807292,21.3942708 Z" id="Shape"></path>
                    </g>
                </g>
            </g>
        </g>
    </g>
</svg>