<?xml version="1.0" encoding="utf-8"?><!DOCTYPE svg PUBLIC "-//W3C//DTD SVG 1.1//EN" "http://www.w3.org/Graphics/SVG/1.1/DTD/svg11.dtd"><svg version="1.1" id="Contours" xmlns="http://www.w3.org/2000/svg" xmlns:xlink="http://www.w3.org/1999/xlink" x="0px" y="0px" width="1306.197510px" height="1306.197510px" viewBox="-0.000024 0.000000 1306.197510 1605.175781" enable-background="new 0 0 1306.197510 1306.197510" xml:space="preserve" stroke="black" fill="none" stroke-linecap='round' stroke-linejoin='round'><path class="selected"  fill="#000000" opacity="1.000000" stroke="none"
 	d="
M507.505578 629.175781 C500.657922 632.042175 493.783776 633.763367 493.764611 642.746460 C493.762536 643.725464 491.409997 644.699463 490.147790 645.675781 C489.329186 644.571228 488.186852 643.581970 487.745568 642.343079 C485.237511 635.301941 481.587487 629.143005 475.710290 624.294067 C470.864709 620.296387 461.949425 618.601196 455.167199 619.318787 C447.884362 620.089478 440.777917 620.347595 433.808068 623.427979 C430.063927 625.082581 428.062218 620.627014 425.928674 617.715210 C422.370690 612.859741 419.288049 608.199646 411.767541 607.266113 C404.015466 606.304016 398.106286 608.058838 392.324670 612.376831 C389.559533 614.441956 387.243005 619.729248 383.786095 617.292297 C381.238976 615.496643 380.424279 610.227966 380.169274 606.417603 C379.705407 599.487244 377.578576 594.605957 370.890343 591.175293 C366.655480 589.003174 363.496056 584.528442 360.199670 580.782532 C355.597741 575.553040 349.836632 573.608276 343.113732 573.665100 C337.114220 573.715820 331.091027 574.012878 325.118737 573.605408 C312.808923 572.765381 302.261071 577.272583 292.263085 583.686523 C281.381066 590.667603 279.867272 595.921875 284.789452 607.544556 C286.229333 610.944519 287.158837 614.607483 287.869347 618.238525 C288.060876 619.217285 286.761376 621.273254 285.839867 621.481934 C284.732812 621.732605 282.627648 620.885254 282.120934 619.908386 C279.855553 615.541138 277.398949 611.120239 276.143883 606.416565 C274.121239 598.836487 267.150536 592.037781 259.509667 591.715515 C254.518517 591.505066 249.490136 591.401001 244.519860 591.785461 C241.813500 591.994751 238.940942 592.881531 236.583337 594.231262 C230.161156 597.908203 227.658227 598.615356 223.590295 594.021912 C214.696374 583.979126 204.469262 584.048889 192.746728 587.509583 C185.227441 589.729431 177.170617 590.062256 169.479333 591.793945 C165.633019 592.659973 161.495446 594.067871 158.525658 596.497131 C155.282738 599.149780 152.131371 602.819641 155.213891 608.014832 C156.601403 610.353394 157.379052 613.167175 157.873742 615.867920 C158.081200 617.000183 157.089257 619.190125 156.188622 619.477661 C155.033532 619.846558 152.580163 619.176880 152.153649 618.266846 C150.460473 614.654541 148.328088 610.812561 148.182702 606.986450 C147.591759 591.431274 135.751183 584.934204 124.999779 578.023743 C119.429223 574.443176 112.567284 572.499756 106.022179 570.924316 C100.723901 569.648987 95.030541 569.956543 89.506066 569.695496 C83.504845 569.411926 79.946496 573.002991 76.929345 577.641724 C75.939355 579.163818 74.167809 580.177612 72.753625 581.423828 C72.726342 578.952393 71.660302 575.649719 72.855309 574.156433 C77.524621 568.321289 83.579369 564.587708 91.378136 563.574402 C101.782067 562.222595 110.689477 566.793396 119.541283 570.550293 C128.055627 574.164001 135.988610 579.374329 143.654565 584.643311 C146.529198 586.619141 148.154931 590.616272 149.934411 593.915955 C151.339501 596.521423 152.811364 596.574707 153.932824 594.267090 C156.937585 588.084290 162.797875 587.102356 168.480492 585.680237 C177.909692 583.320435 187.548852 581.899475 197.060998 580.002869 C205.778893 578.264709 215.247826 578.586670 222.617577 585.364197 C227.396142 589.758789 231.776208 590.123962 237.819237 587.147095 C248.626794 581.823303 260.163537 583.337585 269.972863 589.273193 C274.639367 592.096802 275.855614 590.849487 278.612939 588.146362 C283.638146 583.219849 288.437951 578.380005 295.149071 575.068787 C304.485802 570.462341 313.693932 567.233765 324.112878 567.634155 C325.326379 567.680786 326.562096 567.154602 327.787438 566.893921 C326.559045 566.186768 325.408044 565.165039 324.085656 564.840576 C321.628625 564.237671 319.064782 563.697998 316.558312 563.751038 C312.066369 563.846008 310.101281 562.166260 309.918786 557.472961 C309.539880 547.737976 309.220544 537.947083 307.904259 528.312012 C303.713097 497.633301 307.089684 466.842590 306.066491 436.124817 C305.796960 428.039185 308.360558 425.809143 316.483361 425.678772 C317.816491 425.657410 319.164025 425.551086 320.480675 425.699341 C324.335046 426.133118 325.735924 425.184570 326.210656 420.633606 C328.291100 400.694519 327.903039 380.727112 328.050133 360.754822 C328.074670 357.423706 328.068688 354.722656 323.495812 355.662109 C314.314294 357.548279 309.955407 351.649475 306.134972 344.847107 C305.484216 343.688538 304.481164 342.727844 303.640832 341.675781 C303.095666 342.992615 302.154626 344.283997 302.068078 345.630371 C301.368432 356.514954 300.195397 357.664062 289.126122 357.674744 C283.126122 357.680542 277.102013 358.006165 271.133996 357.569397 C266.513757 357.231079 265.884606 359.196106 265.929650 363.141785 C266.112328 379.139648 264.657006 395.287842 266.381188 411.099792 C268.139672 427.226257 266.139916 443.442505 268.375024 459.260010 C270.846276 476.747803 269.181725 494.098511 269.980248 511.484802 C270.763390 528.536560 271.346581 545.597595 271.995263 562.655396 C272.071252 564.652527 272.302697 566.718628 271.893517 568.631042 C271.650048 569.768799 270.375512 571.377441 269.419030 571.485413 C268.368371 571.604004 266.531823 570.489319 266.126794 569.476501 C265.095788 566.898376 264.141015 564.088013 264.085534 561.351807 C263.301415 522.630432 262.526940 483.907410 262.129418 445.180908 C262.050988 437.534851 261.392907 434.730957 252.758569 435.709717 C243.932885 436.710205 235.106652 437.412720 226.363000 439.468994 C219.211327 441.151062 211.626122 440.963318 204.241540 441.690063 C198.177453 442.286682 192.106042 442.882263 186.091088 443.819885 C185.241051 443.952393 183.831139 446.352905 184.134667 447.149292 C188.889123 459.624329 182.928551 473.126709 187.910485 485.579590 C188.600182 487.303650 188.005578 489.541504 188.005578 491.541504 C188.005578 503.541504 187.057397 515.637695 188.262902 527.515320 C189.560082 540.296875 188.547387 553.306885 191.909936 565.909973 C192.574120 568.399414 192.195824 571.237305 191.924950 573.876099 C191.790307 575.187500 190.809350 576.411987 190.211144 577.675781 C188.809289 576.491882 186.515343 575.522156 186.170068 574.084534 C185.061181 569.466919 184.149255 564.681091 184.106225 559.951599 C183.989220 547.101379 180.790185 534.832581 178.123193 522.412598 C176.782006 516.166931 176.621056 509.661682 176.015954 503.265381 C174.649499 488.820801 173.586205 474.342407 171.917992 459.933472 C170.820458 450.453918 167.039391 447.685059 157.152734 447.677185 C148.819421 447.670532 140.481896 447.529419 132.155419 447.767456 C129.747826 447.836365 127.359582 449.596008 124.983910 449.546814 C120.755639 449.459351 121.496911 452.645325 122.146996 454.227783 C124.987878 461.143311 124.974999 467.791931 122.141991 474.685181 C121.438744 476.396118 122.007836 478.633545 122.007104 480.628967 C122.003747 489.962280 122.230553 499.302124 121.956322 508.627380 C121.464379 525.356323 120.682946 542.076904 119.976342 558.799072 C119.938256 559.698853 119.475426 560.580688 119.210412 561.470947 C118.808800 560.440552 118.326134 559.432251 118.036401 558.371277 C117.867028 557.750854 118.005578 557.046387 118.005578 556.379700 C118.005578 521.379822 118.129845 486.379028 117.865502 451.381104 C117.827843 446.395264 120.387658 444.380066 124.079613 443.811768 C131.399316 442.685059 138.838769 441.834351 146.230370 441.822021 C153.286401 441.810303 160.416283 442.616577 167.362817 443.887817 C169.807091 444.335205 172.887597 446.800293 173.785851 449.087097 C175.817773 454.260437 177.202172 459.830688 177.885216 465.358765 C178.997643 474.360840 179.305871 483.460938 180.053185 492.511475 C180.134301 493.493713 180.872765 494.421814 181.306359 495.375000 C181.539452 494.471558 181.976647 493.567749 181.975121 492.664734 C181.949792 477.769531 182.664880 462.861145 178.115624 448.287292 C175.807458 440.892639 178.623009 438.624573 186.092492 437.511292 C199.924401 435.449707 214.005456 435.774231 227.705651 431.940369 C235.350732 429.801025 243.736474 430.171936 251.805871 429.725220 C259.398705 429.304749 259.923486 429.141541 259.975732 422.120667 C260.077355 408.454834 260.216698 394.783020 259.915612 381.122986 C259.767113 374.387756 258.381371 367.685669 258.095971 360.945679 C257.859765 355.366577 260.452294 353.195190 265.632348 351.584595 C274.280053 348.895874 283.072778 349.870789 291.832360 349.680603 C294.533471 349.621887 297.045312 350.456665 295.201012 345.603271 C292.320580 338.023376 296.517419 334.061340 304.799767 335.340393 C305.746178 335.486511 307.887414 334.036255 307.853844 333.413757 C307.594689 328.620544 306.932946 323.849121 306.401818 319.070374 C306.259850 317.792725 306.026086 316.513123 306.022912 315.234009 C305.993859 303.234131 306.031335 291.234009 305.982262 279.234314 C305.973351 277.041809 305.986047 275.559387 309.032799 275.555847 C312.150841 275.552246 311.934045 277.172485 312.039025 279.287292 C312.636925 291.347839 313.276818 303.407104 314.025964 315.459106 C314.589562 324.522705 315.175622 333.591125 316.084557 342.623962 C316.457116 346.326050 317.208581 349.136414 322.946252 347.943604 C331.768029 346.109680 334.656457 348.586609 335.842370 357.511292 C336.377770 361.539612 335.141930 365.801270 334.726159 369.958679 C334.469689 372.524536 334.048913 375.092712 334.037682 377.661255 C333.972008 392.660950 334.092614 407.661804 333.966882 422.660706 C333.908532 429.636414 332.081261 431.155640 325.268273 431.737732 C321.514855 432.058411 317.760094 432.808838 314.129235 433.812073 C313.183678 434.073364 312.046593 436.046021 312.109948 437.169739 C312.584679 445.571106 313.792687 453.950073 313.914513 462.348511 C314.199425 482.010986 313.786340 501.683777 314.094689 521.345581 C314.257775 531.743958 315.132287 542.149170 316.196496 552.498779 C316.387536 554.355957 318.792809 556.426575 320.680871 557.549133 C322.739831 558.773315 325.454552 558.831421 327.763024 559.712830 C332.556359 561.542786 336.335168 561.510437 340.032433 556.859558 C346.903283 548.216858 363.462121 549.976074 370.094811 560.521057 C371.000451 561.960938 373.111413 562.642883 374.664269 563.675781 C375.111413 562.260986 375.404504 560.773682 376.030724 559.443176 C380.026330 550.954285 378.504845 541.827393 377.646325 533.295959 C376.629113 523.187622 373.967736 513.220886 373.991418 502.916748 C374.038903 482.250244 373.758019 461.579224 374.121667 440.918945 C374.277306 432.073486 371.946252 431.167664 364.484826 431.595703 C357.840050 431.976868 351.152428 431.797485 344.491906 431.594421 C342.721154 431.540344 340.281457 431.003296 339.383874 429.781067 C337.889367 427.746277 335.690026 425.528381 340.697594 423.300232 C344.373254 421.664734 348.065392 420.917480 350.946252 421.931641 C357.702599 424.310120 364.446618 423.460693 371.208581 423.648743 C378.874108 423.861755 381.583337 426.197693 381.981042 433.808167 C382.732751 448.194214 383.561852 462.583130 383.864587 476.981323 C383.951012 481.092712 385.169030 481.829346 388.895104 481.786743 C393.984216 481.728394 399.398644 480.288513 404.042687 483.706726 C405.501916 484.780884 407.555505 486.047974 407.850426 487.523987 C408.912072 492.835510 409.836877 498.266907 409.913781 503.665771 C410.160729 520.995544 410.015099 538.331055 409.997765 555.664307 C409.994103 559.305908 409.728600 562.549500 414.675011 563.946472 C416.878869 564.568970 418.193688 568.177368 420.030358 570.329468 C420.991662 571.455872 422.209313 572.363708 423.311120 573.370239 C424.018273 571.996460 424.993859 570.690979 425.365075 569.231750 C425.835412 567.381897 425.972863 565.407776 425.980065 563.486206 C426.028893 550.486450 427.749718 537.178650 425.525475 524.571167 C423.201257 511.396851 425.330285 498.216553 422.406945 485.054321 C419.823815 473.422729 420.478112 461.035461 420.083337 448.969360 C419.869714 442.439026 420.780846 442.076782 427.462975 441.619934 C432.874841 441.249939 438.582116 443.293884 443.683190 439.740173 C444.356408 439.271179 446.000207 439.250122 446.580651 439.743591 C450.961022 443.468262 456.076134 441.237244 460.815270 441.605530 C472.188805 442.489441 483.595422 442.946106 494.973717 443.779114 C496.038537 443.857117 497.501549 445.194946 497.905358 446.274719 C498.880944 448.882996 499.894982 451.680481 499.916955 454.409485 C500.080285 474.741394 500.045617 495.075439 499.985558 515.408508 C499.961877 523.410950 499.711510 523.877136 491.518883 523.581177 C483.450890 523.289612 475.364342 524.876587 467.262536 521.897339 C462.196374 520.034424 460.448083 522.749451 461.666833 528.396851 C462.075280 530.289551 461.982140 532.305908 461.992394 534.266357 C462.027062 540.932800 461.951989 547.600159 462.022057 554.266052 C462.081017 559.875916 462.283898 565.484253 462.423058 571.093262 C467.399743 570.620789 472.369591 570.048218 477.354943 569.699707 C484.535119 569.197754 490.378991 570.955811 494.161217 578.040771 C496.211510 581.881470 508.318810 579.914307 509.996911 575.880920 C510.706750 574.175049 511.921716 572.415833 511.882653 570.704285 C511.612633 558.895386 511.275597 547.079712 510.529626 535.293518 C510.170739 529.621887 508.930627 524.000244 507.991906 518.372253 C506.797936 511.214233 505.502526 504.072998 504.257531 496.923462 C504.148156 496.295654 504.054528 495.661438 504.014733 495.026367 C503.973229 494.362244 504.019860 493.693237 504.003503 493.026978 C503.339196 465.969788 502.279626 438.914673 502.146691 411.854919 C502.061364 394.468140 503.228112 377.069336 504.063561 359.687012 C504.371545 353.279236 505.584557 346.916748 505.938561 340.508972 C506.317101 333.657166 512.584313 328.283081 519.070275 329.742676 C524.862145 331.046021 530.603966 332.663757 536.456261 333.575378 C540.688805 334.234680 541.589196 331.323486 542.113366 327.498169 C544.628136 309.150513 543.507653 290.708618 544.169640 272.317871 C544.451867 264.472900 546.938317 256.730652 547.676720 248.871643 C548.326745 241.954834 547.958092 234.940430 547.999841 227.968872 C548.048424 219.833801 548.039391 219.869446 556.462121 217.647034 C558.238244 217.178345 560.057946 216.564941 561.591271 215.596558 C562.592370 214.964294 563.806603 213.512695 563.723595 212.529785 C563.432702 209.090271 562.437707 205.715576 562.048058 202.277954 C561.455285 197.048584 564.272790 195.612549 569.154748 195.566101 C575.615807 195.504700 582.070275 194.673950 588.524499 194.135620 C589.113122 194.086548 594.397546 188.586365 594.655114 188.037659 C598.273278 180.334137 594.719323 173.122833 593.050988 165.807434 C592.863488 164.985626 591.706994 164.384796 590.999963 163.681458 C590.001794 164.934662 588.425988 166.059387 588.113244 167.465088 C587.151086 171.789886 587.357995 176.487305 585.794762 180.531158 C584.477257 183.939453 581.321374 186.637146 578.979211 189.649353 C578.801476 185.844635 577.919762 181.909729 578.594323 178.262573 C579.948693 170.937988 582.190636 163.779907 583.991906 156.534607 C585.137902 151.924286 586.346398 151.703674 591.103600 153.596954 C600.152550 157.198395 600.589806 165.456329 601.865319 173.038055 C602.628747 177.576294 602.108727 182.350739 601.972985 187.013458 C601.864342 190.744751 602.824548 193.098755 607.085656 193.775696 C611.832726 194.529846 614.426354 197.604858 614.013024 202.701233 C613.959313 203.363586 613.969079 204.036255 614.011681 204.700256 C614.240319 208.267639 614.488610 211.833862 614.730187 215.400513 C618.082726 214.825623 621.422936 214.163208 624.790246 213.693848 C632.119469 212.672119 635.196130 214.794983 633.764733 222.168457 C631.547082 233.591919 632.963830 245.043579 631.797204 256.365234 C630.807091 265.974182 627.918053 275.379517 626.070153 284.913879 C625.634240 287.162720 625.928185 289.570984 626.017907 291.900818 C626.661340 308.625549 627.313805 325.349976 628.020470 342.072144 C628.240563 347.278992 628.481774 351.824097 620.904626 352.054749 C617.833825 352.148193 615.707848 354.937012 615.747521 359.589600 C615.849938 371.640198 615.230675 383.765137 613.869836 395.743408 C612.004113 412.165588 611.549035 428.740173 609.555260 445.046814 C607.374474 462.881287 609.764977 480.651306 607.752282 498.244263 C606.177819 512.007202 606.495446 525.712219 605.830651 539.436218 C605.515954 545.933289 603.416222 552.357788 601.946740 558.774292 C601.613610 560.228821 600.850671 561.957458 599.718468 562.753174 C598.551476 563.573547 596.639489 563.740173 595.163781 563.503906 C594.616540 563.416260 593.976281 561.338562 594.068810 560.225891 C594.931847 549.846008 592.952477 539.500977 595.666466 528.961853 C597.975671 519.994324 597.106042 510.244690 598.050256 500.882202 C600.607018 475.531616 598.844323 450.044556 600.460168 424.735352 C601.230920 412.661377 601.313561 400.588684 602.079186 388.539551 C602.690270 378.920654 604.014733 369.348511 604.857140 359.741089 C604.956017 358.612000 604.336999 356.789673 603.483239 356.319153 C600.256066 354.540955 596.923302 352.396790 593.397057 351.823608 C582.682458 350.082031 571.810998 349.303711 561.097863 347.554504 C555.537804 346.646667 550.250207 343.617859 544.628136 347.521790 C544.080285 347.902283 540.960168 346.244019 540.868615 345.345276 C540.286584 339.629578 534.074548 343.025452 532.188073 339.694031 C532.107018 339.551147 531.551965 339.698120 531.220544 339.672424 C525.589806 339.235962 519.959435 338.793457 514.329064 338.352295 C513.554528 344.031494 512.777795 349.710327 512.011315 355.390625 C511.967126 355.717957 512.010705 356.056580 512.004967 356.389832 C511.338952 394.780212 509.632531 433.195312 510.542321 471.548279 C510.882897 485.903625 510.447228 500.995422 515.843224 515.137573 C517.496423 519.470581 516.639367 524.495728 517.600426 529.327759 C520.629235 544.556824 521.786706 560.262451 517.727624 575.516174 C516.530114 580.016113 515.742272 587.025024 507.126916 585.962646 C503.915978 585.566711 499.731774 587.732544 497.004113 589.966736 C492.613732 593.562744 491.356652 590.586060 490.048302 587.542114 C486.355675 578.949951 484.685754 577.479004 475.792809 577.766785 C471.052331 577.920288 466.342492 579.010498 461.618371 579.675354 C456.605675 580.380798 453.912926 578.549866 454.131554 573.536682 C454.352502 568.471191 452.248498 563.139893 455.861169 558.252930 C456.817223 556.959656 456.594689 554.125122 455.907311 552.398804 C452.226159 543.154236 454.475915 533.581726 454.106774 524.184204 C453.767785 515.555054 459.291589 511.118530 467.227013 514.160706 C474.752648 517.045776 482.184411 514.794739 489.608361 515.525696 C490.301598 515.593872 491.837243 513.600952 491.908532 512.495850 C492.727502 499.781799 493.643639 487.059875 493.872277 474.328186 C493.980798 468.284912 492.194665 462.220093 492.146081 456.157959 C492.101403 450.590759 488.518151 450.065063 484.725426 449.749634 C480.752892 449.419189 476.722253 449.849365 472.733605 449.636292 C466.316857 449.293457 459.976647 449.260010 453.479577 448.144348 C445.764367 446.819519 437.435387 448.920654 429.408776 449.850708 C428.793786 449.921936 427.792321 452.655762 428.108117 453.851440 C431.969445 468.465149 427.661095 483.623779 430.458337 497.961670 C432.835778 510.147644 430.825524 522.312500 433.541100 534.496582 C435.806115 544.658386 434.642419 555.778442 433.774865 566.374023 C433.225060 573.087952 428.938683 578.717834 423.534020 583.000427 C422.871789 583.525208 420.826379 583.379028 420.277550 582.771240 C418.607507 580.921326 417.091515 578.822021 416.003014 576.582825 C414.284997 573.048767 411.709557 570.100342 407.975549 569.843140 C402.328820 569.454041 401.946618 566.254822 401.965173 561.899719 C402.054772 540.900146 401.758141 519.895752 402.122155 498.902100 C402.276696 489.984253 399.840661 488.909790 392.471642 489.666809 C391.811974 489.734558 391.133507 489.618713 390.473595 489.685364 C386.982507 490.037964 380.863732 489.665222 380.498254 490.936218 C379.396691 494.767761 380.462121 499.249146 380.841882 503.462769 C380.949425 504.655762 381.908776 505.786438 381.959679 506.968018 C382.693444 524.022278 383.313195 541.081360 384.023034 558.136719 C384.208703 562.594604 382.606408 566.205322 379.442834 569.251526 C376.097375 572.472717 372.624108 572.814941 369.225549 569.828125 C366.477013 567.412598 364.115319 564.559998 361.393761 562.110352 C355.425866 556.738708 347.431481 557.549316 342.813317 563.875183 C341.239587 566.030762 341.520348 567.652344 344.454674 567.637634 C354.864709 567.585449 362.761071 572.318359 369.390954 579.973572 C372.655968 583.743408 376.369591 587.132263 379.963464 590.607483 C383.528039 594.054260 387.377160 597.124573 386.123132 603.137268 C385.552819 605.871460 387.293175 606.260986 389.755456 605.005005 C394.441003 602.615051 398.897790 600.219482 404.504601 599.410034 C416.701623 597.649292 424.804406 603.468689 431.184899 612.237610 C433.601403 615.558533 434.580041 615.799133 438.291833 614.627747 C449.077111 611.223999 460.061608 610.104248 471.292199 613.566284 C478.328332 615.735291 482.554162 621.068726 487.085778 625.985413 C490.013757 629.162354 492.603234 629.181824 495.537926 627.069031 C502.726891 621.893616 510.704552 619.435120 519.487878 619.704346 C528.236291 619.972656 537.163659 618.317139 545.647179 621.708374 C549.076501 623.079224 552.348229 624.840576 555.718468 626.365234 C556.810265 626.859070 557.987267 627.164490 559.125329 627.556030 C559.005090 626.182251 559.313073 624.565735 558.694421 623.474487 C554.967370 616.901245 554.713952 609.312073 554.422692 602.388428 C554.062341 593.821777 557.927697 585.905884 566.791955 581.854858 C575.209069 578.008179 583.914269 575.390320 593.231774 575.723022 C601.688805 576.024963 610.128991 576.791443 618.584924 577.156982 C619.497643 577.196472 620.926720 576.125122 621.303796 575.227722 C621.899377 573.810120 621.843835 572.106995 621.999963 570.518433 C624.785973 542.178284 622.596276 513.667114 624.443566 485.376282 C625.734826 465.602051 624.787926 445.854980 626.238488 426.193481 C627.206261 413.076172 628.826989 399.931580 630.475060 386.892578 C631.503625 378.755127 631.404992 370.724365 632.067101 362.666809 C632.151818 361.634644 633.072106 360.671143 633.605431 359.675781 C634.405480 360.737671 635.951257 361.843201 635.892297 362.854797 C635.148278 375.575623 636.839806 388.242920 634.375329 401.103699 C631.999841 413.500061 632.362633 426.473206 632.064538 439.205688 C631.228478 474.925476 630.760094 510.653809 629.933678 546.373901 C629.762536 553.775879 628.654870 561.155090 628.021691 568.548462 C627.908288 569.872070 627.966637 571.215088 628.012780 572.546814 C628.163415 576.893433 630.908654 577.576477 634.629357 577.768982 C639.437341 578.017700 637.923913 574.730042 637.971276 572.460693 C638.687341 538.071289 639.507165 503.682678 639.931969 469.289246 C640.132287 453.050903 640.602380 436.897339 643.941003 420.933655 C644.408532 418.698120 643.944299 416.278625 644.015099 413.947510 C644.665490 392.556580 644.034631 371.018250 646.439538 349.825073 C648.198205 334.326355 647.372399 318.995056 647.952966 303.602417 C648.822350 280.552917 649.489831 257.492432 649.848840 234.430542 C649.905114 230.817810 651.375817 228.655518 653.755822 227.031677 C668.003747 217.310181 680.519738 205.631592 693.076257 193.873108 C704.841515 182.855499 717.756921 173.072968 730.010583 162.565247 C733.044396 159.963623 735.069665 156.088287 738.277184 153.809692 C743.053796 150.416412 746.500939 152.288605 745.898156 157.769257 C745.141076 164.653198 743.585046 171.448425 742.408044 178.287842 C742.190514 179.552277 742.061120 180.842102 742.016686 182.124542 C741.334069 201.847778 741.437096 221.633301 739.855309 241.283447 C735.880578 290.659607 740.274499 340.144897 737.532433 389.440369 C736.172448 413.888855 737.020104 438.258545 735.950768 462.635681 C735.640588 469.708435 734.725426 476.757996 733.980187 483.806824 C733.668908 486.751099 734.574548 487.877930 737.727990 487.747559 C743.717736 487.499939 749.736413 487.440857 755.722497 487.729187 C765.455895 488.198059 775.183678 488.883118 784.892297 489.725525 C790.272790 490.192322 795.413659 498.876404 793.993127 504.664124 C793.401696 507.073120 792.115807 509.444336 792.099084 511.839417 C792.013268 524.111877 790.447716 536.186157 788.049645 548.190552 C787.729455 549.793274 788.005578 551.515076 788.005578 553.181763 C788.005578 558.181763 788.261193 563.198914 787.925744 568.176331 C787.650597 572.259888 786.672326 576.296082 786.005578 580.353271 C790.093346 580.794067 794.490929 580.447144 798.181115 581.898743 C801.827966 583.333191 804.798669 586.536377 807.979089 589.072693 C808.804650 589.731018 809.722375 591.628601 809.889367 591.544861 C811.286095 590.844360 813.016320 590.070068 813.661462 588.812866 C814.341027 587.488098 813.989465 585.607239 813.996056 583.968933 C814.019982 577.969055 813.844079 571.963562 814.047570 565.970459 C814.289513 558.843811 813.582360 551.932190 810.680749 545.346252 C810.432458 544.782959 810.064782 544.209717 810.029748 543.624512 C809.330651 531.902649 808.387902 520.185059 808.111535 508.452026 C807.944054 501.345520 812.499963 496.907715 818.481530 493.643921 C826.916222 489.041565 836.354699 486.306580 843.781701 479.768799 C845.271447 478.457458 847.806969 477.791199 849.872399 477.764221 C864.443200 477.573853 878.938805 477.631592 893.289147 481.390198 C897.489587 482.490356 902.599938 480.227783 907.263268 479.347290 C908.103234 479.188721 908.816613 477.730530 909.554284 477.759033 C915.075280 477.971802 921.373009 476.876587 925.887658 479.192566 C930.648400 481.634644 927.730798 488.253662 927.899010 492.988708 C928.346642 505.582397 926.418664 517.988770 924.076501 530.341370 C923.588341 532.915527 923.983483 535.661438 924.009362 538.327881 C924.131188 550.932434 922.820275 563.377319 920.054406 575.681946 C919.697716 577.268433 920.017541 579.004395 920.003625 580.670959 C919.912072 591.648499 920.231896 591.504761 930.750817 591.878052 C935.637292 592.051453 936.168298 588.645691 937.906091 586.098145 C938.526818 585.188232 938.005578 583.499329 938.005578 582.166016 C938.005578 557.832764 939.674279 533.354797 937.580773 509.203003 C934.998132 479.408020 936.597131 449.713196 936.339928 419.992004 C936.268151 411.687622 937.270348 402.986816 939.692712 394.561890 C941.152795 389.484375 939.538171 383.517761 939.277917 377.951965 C938.913171 370.146545 937.044518 362.065918 938.441735 354.593323 C941.668053 337.338013 943.858117 320.317932 940.383752 302.846436 C939.763390 299.726562 942.369714 295.994507 941.836022 292.822754 C939.737023 280.346619 940.204919 267.813599 939.934777 255.281189 C939.839440 250.861694 941.123254 246.347839 938.218713 241.966858 C937.056847 240.214600 937.498376 236.459473 938.632043 234.398254 C939.694543 232.466919 939.705651 229.070374 944.349938 229.335876 C948.843468 229.592712 949.062707 233.231628 949.660363 234.882996 C950.833825 238.125000 950.172814 242.101440 949.952111 245.754822 C949.778405 248.632996 950.443688 250.099792 953.676476 249.699829 C965.443078 248.244324 977.429650 248.850220 989.038781 245.758789 C991.217492 245.178589 993.700768 245.859863 996.013268 245.641052 C1002.739709 245.004578 1009.620568 247.146606 1016.298669 243.903625 C1017.910363 243.120972 1020.958092 245.032837 1023.242638 245.959045 C1026.876916 247.432617 1024.304406 249.724670 1024.134484 251.968567 C1023.198083 264.338684 1022.222375 276.735168 1022.096520 289.131165 C1021.808800 317.461487 1021.902184 345.797302 1022.056481 374.129700 C1022.118127 385.450256 1021.297204 396.529236 1018.204674 407.528992 C1016.988854 411.853882 1016.977380 417.096069 1018.195641 421.419434 C1022.053185 435.108398 1020.535485 449.080750 1019.422204 462.596436 C1018.674645 471.674438 1018.708581 480.761414 1018.012048 489.816406 C1017.315514 498.871338 1016.814904 507.943726 1015.962609 516.983398 C1015.208092 524.986328 1016.851281 532.182434 1021.853844 538.575623 C1022.992882 540.031433 1023.768395 541.771912 1024.711144 543.381348 C1025.182458 541.772888 1025.320641 539.952454 1026.184777 538.593811 C1029.403893 533.532593 1034.823815 535.177185 1038.891442 535.904297 C1050.770959 538.027588 1062.983727 538.322876 1075.293664 535.764099 C1078.169396 535.166260 1081.275597 535.652466 1084.275353 535.679932 C1095.563317 535.783203 1106.643761 534.364380 1117.648766 531.806824 C1120.722741 531.092529 1124.222375 531.627441 1127.428551 532.169434 C1139.199548 534.159119 1151.080773 536.714661 1162.918420 535.313232 C1168.644982 534.635376 1174.343835 533.585022 1180.131066 533.742371 C1183.061120 533.822021 1184.874352 532.993713 1183.836632 530.021667 C1183.443688 528.896240 1180.883630 527.504700 1179.745568 527.817078 C1164.791589 531.920410 1149.578698 528.664490 1134.532311 529.630615 C1129.944665 529.925171 1126.528039 523.378174 1120.844201 527.423462 C1119.584801 528.319641 1114.845910 520.636536 1116.081628 518.813477 C1118.042809 515.919739 1120.354211 514.396912 1124.248376 516.756775 C1131.225549 520.985107 1138.994103 522.125732 1147.195519 521.771362 C1158.270592 521.292664 1169.364709 522.110474 1180.397790 519.846069 C1184.500085 519.004089 1185.875573 517.464111 1186.103356 513.566895 C1186.264367 510.813416 1187.578210 508.145752 1187.951012 505.382202 C1188.547082 500.962097 1192.522668 496.620667 1188.124718 491.934631 C1187.293053 491.048523 1187.773888 488.673889 1188.048791 487.053833 C1188.873498 482.193787 1187.440392 480.289734 1182.450280 479.653687 C1178.046349 479.092285 1173.582970 478.650818 1169.323449 477.499695 C1167.930871 477.123413 1166.138390 474.584534 1166.281213 473.217529 C1166.417321 471.913086 1168.695275 470.560852 1170.299035 469.775940 C1171.374718 469.249512 1172.916589 469.675781 1174.249963 469.675781 C1195.916589 469.675781 1217.583092 469.667114 1239.249718 469.684631 C1242.748009 469.687439 1247.620934 468.797546 1247.570153 473.672791 C1247.549035 475.699463 1242.948937 478.879395 1240.029626 479.438293 C1232.777306 480.826721 1225.285119 480.923767 1217.906945 481.706482 C1213.165612 482.209473 1208.168908 482.286011 1203.859948 483.997437 C1201.868615 484.788269 1200.531457 488.930176 1200.143029 491.725647 C1199.077843 499.394104 1198.508630 507.144897 1198.067467 514.881592 C1197.805505 519.476868 1198.608239 524.156616 1193.692223 527.178955 C1192.657555 527.815063 1192.007409 529.982178 1192.094689 531.387146 C1192.574792 539.122559 1191.872277 547.353516 1194.352746 554.442749 C1197.982018 564.815796 1194.538537 573.712341 1191.991296 583.074951 C1190.562463 588.326172 1186.848962 589.781189 1181.673180 589.745117 C1158.674279 589.585083 1135.607995 590.725037 1112.697961 589.289551 C1098.532922 588.402039 1084.109216 587.741394 1070.098595 583.896667 C1063.055627 581.963867 1055.368249 582.435852 1047.991540 581.640686 C1043.580407 581.165222 1038.567590 578.641968 1034.940148 580.005371 C1025.344201 583.612183 1015.430993 575.655029 1006.301598 581.675781 C1000.563561 578.109558 994.205895 579.968994 988.127282 579.756531 C981.557580 579.526978 979.040856 581.948242 978.034508 588.484619 C977.834069 589.787048 978.034508 591.147583 978.000085 592.480042 C977.906945 596.079895 975.854333 598.557678 972.533776 597.414429 C970.562707 596.735779 968.348717 593.509460 968.260461 591.346375 C968.112267 587.708313 969.070519 583.801697 970.464074 580.374207 C972.840417 574.529114 977.029748 570.289001 983.770226 569.699219 C992.485680 568.936584 1001.215295 568.335266 1009.939904 567.679199 C1013.650109 567.400208 1018.629235 569.256653 1019.845299 563.947571 C1020.950036 559.124634 1023.911950 554.733521 1018.905724 548.944214 C1012.244958 541.241638 1007.159386 531.992065 1007.884118 520.604126 C1009.010339 502.909607 1008.128747 485.005371 1010.427697 467.495911 C1011.982018 455.657898 1011.543786 443.996826 1011.874230 432.265320 C1012.006676 427.563965 1010.291222 422.837646 1010.088464 418.093933 C1009.718224 409.434387 1011.022790 400.971558 1013.828576 392.690308 C1014.638634 390.299500 1014.002892 387.413452 1014.003136 384.754456 C1014.006799 349.421204 1013.885216 314.087280 1014.096642 278.755310 C1014.144860 270.694397 1015.375817 262.643250 1015.988610 254.581970 C1016.260216 251.008423 1015.168053 251.790466 1013.009484 253.435364 C1011.947350 254.244751 1009.805505 253.597656 1008.156091 253.682495 C995.431603 254.336914 982.700890 254.899109 969.987389 255.725525 C964.244469 256.098816 958.460778 256.659180 952.855309 257.872437 C950.983361 258.277588 948.142541 261.067993 948.239709 262.611145 C948.956017 274.000732 945.693078 285.597107 949.904992 296.835083 C950.384240 298.113647 949.469445 299.910522 949.214440 301.469177 C948.805505 303.968140 947.510827 306.729675 948.149865 308.926941 C952.557946 324.085266 947.818078 338.644836 946.389367 353.520386 C945.542809 362.334961 943.720788 371.763977 947.819176 380.739502 C948.952721 383.222107 948.495080 386.753662 947.930627 389.640320 C940.710656 426.561279 943.481042 463.939087 944.635461 500.978149 C945.427209 526.381470 945.095544 551.785034 945.996056 577.169495 C946.066979 579.166931 946.182336 581.188477 945.965905 583.164795 C945.600182 586.506165 943.757409 590.358337 944.897546 592.961182 C945.687829 594.765381 950.394738 595.237976 953.436242 595.606018 C967.222253 597.274719 975.391198 606.330505 981.901086 617.289917 C984.316125 621.355713 984.382531 624.809937 991.687463 622.249146 C999.989465 619.338806 1009.331994 622.497070 1016.414635 629.089111 C1016.902428 629.543030 1017.359460 630.029663 1017.830895 630.501099 C1020.187951 632.858154 1022.201501 636.174866 1025.038537 637.190430 C1026.590539 637.745911 1029.441125 634.245972 1031.868981 632.860046 C1039.917077 628.265930 1048.217736 625.089539 1057.896203 625.476685 C1064.169884 625.727661 1069.189172 627.252991 1073.307946 631.937988 C1075.065026 633.936584 1077.071618 635.714478 1078.940392 637.616699 C1081.708947 640.434937 1082.415246 641.623474 1084.354943 636.129700 C1088.623254 624.041138 1098.125573 616.036987 1110.852502 613.968506 C1117.699181 612.855835 1124.631676 609.255554 1132.316247 613.360718 C1136.201745 615.436523 1140.318444 616.861572 1143.482140 620.128845 C1146.727868 623.480957 1149.924279 626.910461 1153.462243 629.931335 C1154.466027 630.788513 1156.901086 630.980774 1158.146813 630.377502 C1165.625573 626.755554 1172.586144 624.420654 1181.478844 627.372437 C1193.300011 631.296265 1200.699670 638.793030 1203.714684 650.084351 C1205.257409 655.862244 1205.850060 653.629028 1209.147424 651.753052 C1224.076623 643.259094 1239.783166 639.264771 1256.022790 647.865295 C1259.889977 649.913330 1262.697839 648.940125 1265.251427 647.230835 C1271.624841 642.964966 1278.328454 640.895813 1285.983727 641.645813 C1292.050011 642.240173 1301.006676 648.132080 1301.925378 652.938354 C1302.942834 658.261841 1303.385583 663.698914 1303.977746 669.097656 C1304.158288 670.744446 1303.856530 672.444946 1304.044762 674.090027 C1304.261437 675.983826 1308.933068 678.358826 1303.798791 679.543030 C1300.228234 680.366699 1296.493737 679.925598 1295.971764 674.745728 C1295.460534 669.672852 1294.420739 664.645325 1294.070641 659.566284 C1293.653527 653.514038 1291.714684 650.288879 1285.961022 649.802551 C1278.458092 649.168396 1271.354577 651.294861 1266.083092 656.883240 C1260.665978 662.626038 1260.081261 663.328369 1255.651696 658.127441 C1248.513024 649.745544 1239.342004 650.687012 1230.519006 652.425659 C1222.023278 654.099792 1214.358727 658.153564 1206.880212 663.092529 C1202.395470 666.054260 1201.653039 670.729980 1198.038415 673.596375 C1196.625451 674.716858 1195.765099 677.188599 1194.329674 677.486450 C1191.566735 678.059570 1187.728722 678.631897 1186.651696 675.039185 C1186.079797 673.131348 1187.036828 669.804688 1188.518273 668.394653 C1199.960778 657.503845 1197.111413 649.345154 1188.170129 640.596497 C1178.219811 630.860596 1169.633874 633.564758 1160.060387 638.711365 C1158.654504 639.466980 1157.697228 641.036438 1156.488244 642.182983 C1153.215050 645.287354 1150.323083 643.815918 1148.346032 640.857056 C1146.486169 638.073730 1145.614465 634.651611 1143.969079 631.699463 C1139.076379 622.920288 1129.066247 618.920349 1119.263146 621.332214 C1116.471764 622.018860 1113.425378 621.610901 1110.581628 622.153870 C1098.469445 624.466187 1093.933923 634.027893 1090.024255 644.081482 C1088.874963 647.036865 1089.568200 650.959106 1084.861535 651.745667 C1080.258752 652.515076 1078.077599 649.315674 1076.088219 646.532104 C1067.001794 633.817200 1056.375695 630.183899 1042.557824 636.277283 C1035.621789 639.335999 1028.769250 642.968018 1025.671471 650.854675 C1025.184899 652.093323 1022.913781 653.735901 1022.000939 653.455505 C1020.446374 652.978210 1018.359582 651.249817 1018.169884 649.824341 C1017.321862 643.448059 1014.614098 638.386536 1009.673791 634.271484 C1005.215173 630.557800 999.978356 628.902466 994.600671 629.891907 C990.608605 630.626404 985.391076 631.643677 985.945031 638.054626 C986.045495 639.217163 985.602013 640.596008 984.982751 641.615784 C983.741906 643.659302 982.206017 645.523682 980.791711 647.461914 C978.815758 645.016541 975.626916 643.587463 975.884728 639.436829 C976.158898 635.022522 977.780114 630.978638 976.258996 626.023499 C970.957238 608.753906 950.027306 594.029236 929.070519 605.883362 C923.555749 609.002808 920.896935 615.014404 922.031335 621.819397 C922.823571 626.572510 921.336388 628.152710 916.262658 627.816589 C907.958703 627.266357 899.804284 627.507629 891.842858 631.504333 C882.070153 636.410278 876.688439 644.607422 872.046960 653.731812 C871.498742 654.809265 871.840783 656.375977 871.220422 657.374451 C867.711877 663.021606 865.323205 662.842834 861.991784 656.962402 C858.856530 651.428772 855.986413 645.810669 851.021691 641.409546 C848.624841 639.284607 846.916100 635.750183 846.132409 632.551025 C843.122643 620.262939 833.437096 614.652710 823.034508 612.036682 C809.450524 608.620728 795.972253 611.742065 784.159386 619.769104 C781.729577 621.420227 780.138757 624.290466 778.114465 626.556885 C773.390099 631.845886 770.338341 631.156982 768.000817 624.324097 C767.002648 621.406311 766.064049 618.460938 764.904870 615.606628 C762.241418 609.048279 757.446007 605.779358 750.209924 605.618408 C736.985802 605.324097 724.217736 606.858032 712.031091 612.501343 C707.666711 614.522339 705.561852 616.819824 705.821496 621.925476 C706.006432 625.560913 704.959679 629.484558 703.536095 632.892578 C702.662316 634.984558 700.587121 637.388794 697.397057 634.216980 C693.435021 630.277527 691.302087 623.992798 694.101159 619.291504 C699.262292 610.623108 696.020715 602.914551 691.816735 595.483582 C690.717614 593.540955 687.377892 592.047913 684.935387 591.830933 C676.253625 591.059692 667.529870 591.657898 659.660851 595.780090 C655.063195 598.188599 652.175378 597.515320 647.596764 594.734497 C636.607140 588.060059 624.600426 583.329102 611.232995 583.643188 C603.570519 583.823242 595.891076 583.447327 588.237511 583.763672 C583.826989 583.946045 579.247399 584.399658 575.102624 585.795776 C564.731164 589.288940 559.274255 600.080261 562.204430 610.815308 C564.566857 619.470825 567.505700 627.969299 569.857507 636.627441 C570.825646 640.191406 569.223595 643.964783 566.231286 645.441772 C563.430993 646.823975 561.505090 644.480347 559.821252 641.359131 C555.085534 632.581360 547.096276 629.450012 537.269006 627.149475 C526.831872 624.706177 517.701257 627.826904 507.505578 629.175781 M646.005578 462.675781 C645.906701 485.743713 646.040734 508.787781 644.226159 531.847717 C643.053307 546.750122 644.789269 561.884827 643.551598 576.776672 C643.154748 581.552307 644.581750 583.577820 647.236779 585.762573 C650.078454 588.100769 653.084679 590.764465 657.415246 589.281921 C662.379601 587.582458 667.338464 585.851440 672.364220 584.349915 C683.070519 581.151062 693.350915 584.804749 699.463586 594.260864 C701.444054 597.324768 702.309289 601.092468 704.116051 604.294983 C704.767663 605.450073 707.329186 606.893005 707.924035 606.508850 C716.047936 601.262085 725.505212 600.098572 734.540612 598.402954 C747.610314 595.949951 760.440270 597.024658 769.735070 608.527832 C771.844323 611.138306 773.100793 614.437744 774.749841 617.419983 C777.536828 615.470032 780.341027 613.544006 783.108117 611.566162 C794.211144 603.629883 807.028893 602.932373 819.816003 603.829590 C834.456994 604.856873 846.169274 612.511047 852.254601 625.530457 C855.829064 633.177795 861.548791 638.903687 865.469811 646.014099 C865.718102 646.464539 867.133263 646.271606 868.005578 646.378052 C867.138390 640.535095 872.715539 638.960754 875.292321 635.403992 C882.753625 625.105408 893.193322 620.032227 905.588708 619.891174 C911.191369 619.827515 914.792199 617.762695 915.412804 612.994507 C916.101769 607.702026 919.745324 605.237427 922.750817 601.984314 C923.664513 600.995300 924.911340 600.313904 926.005578 599.491638 C924.416344 598.886353 922.867028 598.103882 921.224816 597.732849 C919.956750 597.446411 918.284386 598.159241 917.300133 597.573486 C915.349450 596.412781 912.516198 594.854309 912.245324 593.117493 C911.534997 588.563293 911.132287 583.616760 912.184167 579.202454 C914.496545 569.499878 915.192712 559.663452 915.950402 549.823486 C916.851525 538.122009 916.550866 526.266602 918.338219 514.720581 C919.231042 508.952087 919.257409 503.190796 920.137658 497.524414 C922.139367 484.638428 921.985924 484.199951 909.086877 485.690125 C908.164147 485.796753 907.273400 486.252563 906.354333 486.303528 C897.887170 486.772217 889.006676 488.964111 881.060876 487.128784 C872.770226 485.213684 864.800622 486.632263 856.747277 485.813354 C855.933068 485.730591 854.252282 487.472900 854.114709 488.518433 C853.233849 495.211609 852.687096 501.948303 852.001427 508.667725 C851.316857 515.375732 850.848840 522.118958 849.821862 528.775085 C848.868249 534.955322 846.966759 540.993591 846.092492 547.180542 C845.056115 554.516052 844.781579 561.956055 843.957116 569.326172 C843.574425 572.747131 843.179162 576.329895 841.836388 579.425903 C840.857507 581.683044 838.318932 583.263672 836.475793 585.145996 C835.652428 583.154541 834.059289 581.133423 834.134728 579.176697 C834.522546 569.112366 834.844689 559.000610 836.138512 549.028442 C837.553918 538.118469 840.156091 527.367920 841.953942 516.500366 C843.202477 508.953613 844.000939 501.330750 844.899255 493.729919 C845.005822 492.827942 844.757165 491.473389 844.153649 491.019836 C843.609460 490.610840 842.238854 490.914978 841.428429 491.308167 C834.765466 494.540344 828.113976 497.800171 821.527673 501.185364 C816.252892 503.896484 812.679162 513.221741 814.165368 516.808228 C817.143761 523.996582 817.868981 531.496216 818.130700 539.204773 C818.312096 544.547119 819.560387 549.869141 820.521447 555.165894 C822.739709 567.389587 822.854333 579.436401 820.281213 591.761719 C819.019128 597.807556 814.888268 598.727844 811.005578 599.400208 C807.457238 600.014587 801.655480 602.439514 801.281945 594.314758 C801.181969 592.139771 797.663903 588.942505 793.536462 589.609985 C791.263390 589.977600 788.881921 589.696716 786.549645 589.671814 C780.344933 589.605530 775.947716 585.079834 778.245934 579.568726 C781.091882 572.744324 779.304650 566.022217 779.963219 559.300232 C780.221886 556.659851 779.439172 553.821472 780.104455 551.333679 C782.857629 541.038208 783.952355 530.599731 784.096642 519.977112 C784.138634 516.900146 785.189294 513.816833 785.928307 510.773071 C788.263634 501.154846 784.253869 495.835938 774.216882 495.706726 C763.555749 495.569397 752.891320 495.629150 742.228844 495.692383 C735.258752 495.733765 732.473840 498.242188 732.049157 505.378113 C731.232751 519.088074 730.594201 532.810181 730.043175 546.533691 C729.816125 552.189209 729.601769 557.898560 730.118005 563.515808 C730.644128 569.241333 728.245934 575.071960 731.624718 580.911682 C732.502404 582.428467 728.700280 586.652893 727.047692 589.633728 C725.162804 587.157410 721.321984 586.005859 721.964928 581.803711 C722.213952 580.175720 721.996667 578.477722 722.006799 576.811707 C722.130212 556.410828 721.498254 536.008057 723.889123 515.648560 C725.041711 505.833740 722.140954 495.530151 727.903161 486.266479 C728.650353 485.065186 727.945275 482.995483 728.014855 481.332275 C728.922936 459.623535 727.386681 437.943542 729.625939 416.144836 C732.181115 391.271790 728.346276 366.054321 731.745568 341.004089 C732.762292 333.511536 729.905724 325.572510 730.154626 317.881165 C730.803674 297.830994 728.871545 277.819092 731.643883 257.676697 C734.049401 240.198547 733.246911 222.287476 734.039880 204.575684 C734.520226 193.847412 735.297326 183.131287 736.066247 172.418671 C736.148400 171.274109 737.341515 170.232239 737.524255 169.065277 C737.692590 167.989716 737.194176 166.809753 736.989587 165.675781 C735.853478 166.150604 734.372887 166.322845 733.642419 167.154083 C730.897790 170.278015 728.845055 174.145538 725.727746 176.782318 C713.154015 187.417450 699.748742 197.008240 687.878381 208.557800 C679.345055 216.860474 670.019372 224.468506 660.349572 231.415222 C657.180505 233.691833 656.018029 235.357361 655.956139 238.897583 C655.372643 272.277588 654.664147 305.655334 654.016076 339.034241 C653.938439 343.031311 654.005578 347.031189 654.005578 351.029724 C654.005578 352.695801 654.655602 354.783813 653.894616 355.955933 C650.314660 361.470886 652.722375 367.476868 652.021935 373.195129 C651.281457 379.241028 650.249108 385.292236 650.095177 391.360168 C649.791344 403.348206 650.524743 415.378479 649.854211 427.336609 C649.228966 438.486511 647.338830 449.565552 646.005578 462.675781 M550.005578 318.675781 C550.005578 324.000854 549.870446 329.332275 550.121056 334.645569 C550.170373 335.691650 551.514733 337.113953 552.598962 337.582825 C554.852380 338.557190 557.297448 339.400635 559.723717 339.612061 C575.169762 340.958496 590.377160 343.332764 605.406579 347.386719 C609.564416 348.508301 614.897546 346.691772 619.190881 344.973022 C620.384240 344.495239 619.826623 339.538269 619.988854 336.631592 C620.081506 334.972656 620.108117 333.296875 619.988488 331.641479 C619.358361 322.928894 617.053674 313.953613 618.434045 305.581055 C619.997765 296.095215 619.551842 286.774231 619.996911 277.383240 C620.059899 276.054993 619.577233 274.530396 620.071984 273.419495 C624.845666 262.700439 623.800011 251.344299 624.085412 240.102844 C624.164025 237.011230 625.232751 233.948120 625.809167 230.864807 C626.357873 227.930786 626.857262 224.987610 627.378258 222.048462 C624.101525 221.924255 620.643395 221.057556 617.579797 221.805786 C605.076012 224.859863 592.722741 224.788086 580.239220 221.783752 C577.828698 221.203613 573.830407 221.004883 572.719811 222.376038 C569.019982 226.943359 564.361901 225.556641 559.955407 225.592468 C557.146325 225.615295 555.904015 226.032166 555.923669 229.300720 C556.003991 242.696411 556.941613 256.180603 553.960290 269.398193 C550.962853 282.687561 552.419396 296.133423 551.923302 309.513550 C551.834069 311.921387 550.672204 314.289368 550.005578 318.675781 M1133.005578 543.675781 C1131.008752 543.675781 1129.012048 543.675781 1127.015221 543.675781 C1115.699914 543.675781 1104.268395 542.658020 1093.098473 543.932434 C1079.012658 545.539490 1065.024377 547.694641 1050.795983 547.699707 C1031.435998 547.706604 1034.230675 544.932373 1034.006554 565.590332 C1033.999352 566.255859 1033.735436 567.123779 1034.054650 567.550415 C1035.146203 569.009277 1036.241296 571.169800 1037.702477 571.517090 C1042.316247 572.613770 1047.080651 573.169800 1051.816125 573.639893 C1059.847131 574.437134 1068.079797 574.181702 1075.900719 575.877075 C1086.616051 578.200012 1097.280236 579.788147 1108.233727 579.751892 C1110.345177 579.744873 1112.434899 580.906616 1114.579552 581.195374 C1117.154992 581.542175 1120.428063 582.587402 1122.251794 581.465332 C1126.628014 578.772827 1131.108727 579.815735 1135.531701 579.737061 C1146.177941 579.547729 1156.830041 579.675781 1167.479699 579.675781 C1186.240563 579.675781 1186.239465 579.675781 1186.007653 560.501465 C1185.991540 559.170410 1186.148888 557.820923 1185.982873 556.510681 C1184.574792 545.391174 1182.553674 543.681458 1170.948327 543.676880 C1158.967370 543.672119 1146.986535 543.675781 1133.005578 543.675781 M604.005578 212.675781 C604.005578 210.010010 604.253381 207.309509 603.887902 204.694824 C603.734216 203.595215 602.302819 201.825439 601.421227 201.806458 C591.762170 201.598083 582.093224 201.543823 572.437585 201.819824 C571.009240 201.860657 568.669152 203.642151 568.416344 204.942261 C567.615319 209.060486 573.076134 215.596741 577.428307 215.583862 C586.288171 215.557617 595.146569 215.009094 604.005578 212.675781 z"/><path class="selected"  fill="#000000" opacity="1.000000" stroke="none"
 	d="
M1097.505578 704.175781 C1105.924157 705.675781 1113.823571 706.874268 1121.764611 707.641113 C1154.096154 710.762939 1186.579919 708.457886 1218.904504 710.106567 C1234.643029 710.909302 1250.419518 710.594849 1266.074059 711.921875 C1276.629845 712.816650 1287.018639 717.483154 1290.751549 728.041504 C1293.049279 734.540405 1291.158898 742.651245 1290.554894 749.989502 C1290.250451 753.687378 1285.493371 757.085327 1290.005578 761.062256 C1289.911828 773.208740 1290.632165 784.963257 1282.956628 796.218506 C1272.727380 811.218506 1260.055505 823.112671 1245.671471 833.761475 C1234.341149 842.149414 1223.406091 851.098877 1212.606896 860.169556 C1198.975060 871.619629 1201.619591 894.911011 1217.211022 901.987549 C1223.398400 904.795776 1228.875329 909.552490 1235.261803 911.468384 C1256.208215 917.751709 1267.471398 932.008423 1272.037804 952.674927 C1275.164513 966.825317 1275.529992 981.005859 1271.842370 994.979126 C1270.131921 1001.459717 1267.166955 1007.752563 1263.904382 1013.651245 C1256.710534 1026.657349 1245.643151 1036.405273 1232.941857 1043.243408 C1221.377404 1049.469482 1208.525841 1053.533813 1195.923180 1057.551758 C1173.803674 1064.604248 1151.540002 1071.260254 1129.131432 1077.323486 C1120.000451 1079.794067 1110.344933 1080.367676 1100.908044 1081.656616 C1085.747155 1083.727661 1070.592126 1085.874146 1055.390710 1087.602417 C1046.045739 1088.664917 1036.627892 1089.191162 1027.227502 1089.636108 C1010.178063 1090.442871 992.936364 1089.719604 976.117516 1092.077637 C962.275964 1094.018188 948.586877 1092.611816 934.899132 1093.757324 C923.751916 1094.690063 912.677453 1096.458374 901.547448 1097.637451 C893.397179 1098.500732 885.217492 1099.421753 877.036706 1099.579956 C864.441003 1099.823486 852.067345 1101.302490 839.668420 1103.510620 C831.098229 1105.036865 822.261559 1105.349121 813.526086 1105.612793 C785.809167 1106.449463 757.989831 1105.802490 730.383752 1107.955811 C687.971154 1111.264404 645.585046 1108.989502 603.196984 1109.551392 C560.540612 1110.116821 517.870446 1109.558472 475.207238 1109.741211 C460.819665 1109.802734 446.632287 1111.956177 432.674401 1115.596069 C430.489831 1116.165771 428.028771 1115.675781 425.695641 1115.675781 C399.697350 1115.675781 373.698693 1115.597290 347.700890 1115.713013 C336.721032 1115.761719 326.043053 1114.041870 315.340661 1111.765747 C302.844201 1109.108032 293.198937 1103.116211 288.018761 1091.068481 C284.062096 1081.866333 284.475304 1072.584961 287.465234 1063.169434 C291.529565 1050.370239 302.111413 1042.828369 310.937707 1033.951538 C314.917443 1029.948975 320.118371 1027.185547 324.586144 1023.634644 C327.650109 1021.199341 326.126549 1016.844360 322.100426 1013.612915 C314.368005 1007.407104 305.071252 1004.552002 295.961388 1001.884766 C283.350549 998.192871 270.541283 995.143311 257.365319 993.469116 C243.686242 991.730591 230.247704 988.168091 216.641869 985.753174 C210.332238 984.633301 203.888085 984.162354 197.482751 983.713013 C183.903954 982.760376 170.838219 979.369995 158.201012 974.698486 C144.408410 969.600220 132.110192 961.748047 122.146447 950.756592 C109.157861 936.428223 100.864953 919.909302 102.170617 900.129395 C103.001611 887.540405 107.067773 875.616699 115.170373 865.591797 C121.803429 857.385010 123.928735 847.214600 128.005578 837.892822 C124.562707 827.000366 124.344933 814.907959 115.465050 806.070679 C104.963464 795.619629 93.567590 786.201172 80.453881 779.450684 C72.032311 775.115601 62.644921 772.510010 53.499596 769.765381 C42.179040 766.368042 31.431481 761.902832 21.195946 755.968384 C11.447350 750.316406 4.764611 743.507568 2.005578 735.213379 C-3.803687 717.749146 3.205224 703.052856 20.461205 697.800903 C27.343407 695.706360 34.613854 694.746765 41.773339 693.736511 C52.854516 692.172852 64.025964 691.229431 75.082665 689.526245 C77.973107 689.080933 80.680260 686.960083 83.297814 685.329712 C88.732018 681.945068 94.493920 680.206421 100.950890 679.568054 C139.302453 675.776611 177.830468 679.841675 216.093896 677.213928 C241.224145 675.488037 266.248986 675.834595 291.290917 675.955200 C308.855065 676.039856 326.578820 676.887024 343.841637 681.533630 C349.656579 683.098816 355.901696 683.313660 361.976647 683.617371 C378.691003 684.453186 395.418664 685.024597 412.142174 685.671570 C429.864098 686.357117 447.657067 686.256470 465.290124 687.890686 C482.398278 689.476257 499.555138 690.473022 516.599572 692.177795 C526.388390 693.156860 536.093346 693.058044 545.820519 693.657593 C557.872277 694.400330 570.040612 696.279419 581.953332 695.262451 C591.022057 694.488342 600.512658 695.300049 609.376305 691.793335 C611.393639 690.995117 613.996178 691.675781 616.329308 691.675781 C637.994591 691.675781 659.663659 691.929749 681.324181 691.611877 C708.716759 691.209961 736.155602 691.122498 763.463586 689.268433 C773.523156 688.585449 783.591027 687.588013 793.659142 687.772400 C811.054894 688.090881 828.636559 687.626770 845.773156 690.067993 C862.611413 692.466797 879.368859 689.974243 895.973595 691.882385 C911.384484 693.653381 926.834069 692.603149 942.143517 693.931641 C957.923058 695.300903 973.799035 696.192200 989.452233 698.111816 C1005.946007 700.134521 1022.534753 697.392517 1038.599328 700.116455 C1052.102135 702.406128 1065.734704 699.661011 1079.087487 703.416138 C1084.644982 704.979126 1091.008507 703.675781 1097.505578 704.175781 M1230.005578 840.675781 C1231.415124 839.266235 1232.645837 837.596069 1234.261925 836.487427 C1249.442712 826.072510 1263.729333 814.843262 1275.038293 799.936890 C1281.705285 791.149048 1282.875817 780.453003 1287.512170 771.049438 C1287.708215 770.651978 1286.465661 769.719849 1286.337121 768.961670 C1283.818932 754.111328 1283.636193 754.041016 1288.265588 740.677734 C1289.028039 738.476685 1289.507775 737.586182 1288.683312 734.988159 C1285.500085 724.957642 1278.387902 720.422241 1269.020592 717.496826 C1265.327111 716.343384 1262.183556 718.334473 1258.718224 717.480591 C1255.039513 716.574219 1250.823693 714.988525 1247.558312 716.003174 C1243.679406 717.208496 1240.565270 715.606323 1237.116540 715.637329 C1225.787316 715.739380 1214.456506 715.675781 1203.126305 715.675781 C1192.129357 715.675781 1181.064904 716.430908 1170.155480 715.453125 C1160.197350 714.560669 1150.198449 714.459229 1140.271569 714.074463 C1134.242882 713.840698 1128.062096 710.325684 1121.949548 713.675781 C1110.944054 710.466309 1099.623986 709.594116 1088.248986 708.863770 C1074.904992 708.006836 1061.593835 706.650513 1048.254235 705.711182 C1038.692223 705.037842 1029.076989 703.992920 1019.540978 704.403076 C1010.319299 704.799683 1001.227868 703.446411 992.074548 703.727173 C987.638390 703.863159 982.811974 703.604126 978.902062 702.952148 C968.303796 701.184814 957.599084 701.330322 947.051598 699.712891 C942.610192 699.031860 937.349328 700.052246 933.816247 697.983948 C929.065758 695.202759 925.936730 699.672119 921.254845 698.756042 C915.047692 697.541504 908.008385 696.628113 901.198449 697.566833 C896.947106 698.152893 892.529137 697.935913 888.222619 697.603577 C883.808312 697.262878 878.736657 694.665039 875.238854 696.128540 C871.433678 697.720581 867.495324 692.825134 864.675133 697.345337 C847.537072 694.268921 830.117760 695.192566 812.860314 693.759766 C806.572106 693.237732 800.204186 693.675781 793.872643 693.675781 C787.874352 693.675781 781.430260 695.061096 775.994591 693.312378 C769.712731 691.291687 764.418786 694.463623 758.516198 693.943054 C749.826501 693.176758 740.961755 693.969482 732.200646 694.542664 C719.401696 695.380249 706.641564 696.833008 693.839440 697.592712 C686.201745 698.045959 678.503991 697.935486 670.854089 697.600403 C663.669396 697.285706 656.503625 695.717834 649.344567 695.814392 C636.950890 695.981689 624.570763 697.053040 612.180382 697.648743 C608.523278 697.824524 604.386315 696.616455 601.310876 697.963745 C598.013390 699.408325 594.741906 698.570557 591.579797 699.219727 C586.826623 700.195557 581.765221 701.997681 576.220910 699.991211 C572.659875 698.702698 567.996911 700.467896 563.826501 700.850342 C562.691247 700.954346 561.478112 701.300659 560.424767 701.038086 C550.261071 698.503174 539.797204 697.824219 529.494836 697.955566 C521.032189 698.063477 512.635705 696.954102 504.145592 697.104248 C496.175622 697.245300 487.503258 696.602173 479.773766 695.051575 C470.139367 693.118713 460.486413 693.471069 450.925744 691.964172 C439.061730 690.094055 426.870812 690.091309 414.807824 689.747742 C403.153893 689.415833 391.480431 689.813354 379.821007 689.595398 C376.123376 689.526367 370.855798 686.710754 369.071740 688.285156 C364.810998 692.045288 362.784020 686.370117 359.238122 687.431396 C355.567956 688.529846 350.796105 688.897888 347.405114 687.462219 C333.409631 681.536926 318.529626 683.594727 304.107018 681.842468 C299.791772 681.318237 295.597741 679.526428 290.662194 681.330933 C287.303429 682.559082 282.767297 680.329529 278.728783 680.002136 C274.597924 679.667236 270.414696 679.499512 266.286706 679.763428 C263.191674 679.961243 260.167687 681.093750 257.073754 681.551208 C255.123620 681.839478 252.323632 682.508057 251.246972 681.529419 C246.219018 676.959106 241.037743 681.095642 236.006799 680.800476 C231.183923 680.517578 226.180138 682.135437 221.469872 681.449280 C216.871728 680.779419 212.989587 683.241821 207.979150 682.323669 C202.384118 681.298523 195.476525 679.784790 189.874474 681.968689 C184.532616 684.051147 179.267236 679.995850 174.075463 683.409424 C172.480309 684.458191 167.929162 680.929993 166.260278 681.964294 C162.572106 684.250000 159.844079 681.755310 156.744225 681.816223 C153.009789 681.889587 149.306176 683.507019 145.571313 683.583862 C133.579736 683.830811 121.578698 683.575745 109.583703 683.717285 C103.447411 683.789612 97.306908 684.293335 91.644860 687.051331 C87.205224 689.213928 83.022790 692.373474 78.345544 693.476562 C69.981530 695.448914 61.364953 696.825928 52.790307 697.300781 C43.635216 697.807800 24.109154 700.655884 17.524743 703.675781 C10.624963 706.840332 2.119164 721.084351 4.197106 727.703369 C5.936791 733.244995 7.804040 738.757446 12.363000 743.402100 C20.188195 751.374268 30.062035 755.428101 39.805871 759.476807 C51.461571 764.319946 63.831628 767.416260 75.687218 771.821167 C79.659570 773.297119 83.865807 774.178955 87.369103 777.659668 C92.737389 782.993286 99.270531 787.188110 105.466149 791.648315 C115.516381 798.883667 123.745141 807.362915 128.666772 819.133057 C133.532799 830.770264 131.177758 847.497192 125.456322 857.385498 C119.126611 868.325195 111.031579 878.452393 109.049523 891.574463 C107.086083 904.574097 105.812035 917.465576 112.842004 929.450439 C118.428796 938.974731 125.166161 947.439575 133.762902 954.706299 C146.273644 965.281738 160.658227 971.878174 176.184472 975.422974 C190.192528 978.621216 204.726159 979.450562 218.960900 981.741821 C232.115746 983.859131 245.191125 986.479492 258.282861 988.975952 C265.982262 990.444092 273.608361 992.321655 281.332848 993.628540 C295.841943 996.083130 309.497033 1001.068359 322.454186 1007.788696 C330.253747 1011.833862 332.744958 1022.281250 327.517663 1027.031250 C322.549401 1031.545898 316.954797 1035.362671 311.816125 1039.700195 C299.828454 1049.819092 289.482690 1060.401367 289.629601 1078.177124 C289.707726 1087.630615 300.895348 1102.585693 309.496789 1105.545532 C317.276940 1108.223022 325.244958 1110.756958 333.796593 1109.750122 C336.329552 1109.451904 338.965050 1110.096924 341.557824 1110.211182 C343.830041 1110.311523 346.111901 1110.363892 348.383141 1110.274658 C351.300133 1110.160156 355.096398 1108.623291 356.948327 1109.925659 C361.454919 1113.094849 365.181237 1108.843262 369.361413 1109.867920 C373.987633 1111.001953 378.850671 1111.358154 383.634118 1111.611328 C388.951012 1111.892822 394.294396 1111.675781 399.626183 1111.675781 C404.958092 1111.675781 410.446618 1110.884766 415.577111 1111.901489 C420.562585 1112.889404 425.180871 1107.628052 429.960412 1111.675781 C439.693444 1109.545898 449.191369 1106.788696 459.456994 1106.962402 C467.608361 1107.100342 475.794640 1104.822144 483.977868 1103.708130 C485.613854 1103.485229 488.056603 1102.968506 488.840050 1103.800171 C491.968346 1107.120728 496.015466 1106.204834 499.086632 1105.454834 C507.026330 1103.515869 514.537682 1103.562012 522.532922 1105.436157 C527.902917 1106.694946 533.824303 1105.951172 539.467126 1105.597046 C544.935876 1105.253784 550.328942 1106.050049 555.816369 1105.893188 C576.985192 1105.287964 598.151452 1105.614746 619.327233 1103.938232 C629.928918 1103.098877 640.743249 1105.469482 651.469933 1105.581909 C675.315270 1105.832153 699.174523 1106.082764 722.967736 1103.724243 C730.347497 1102.992676 737.920739 1104.896973 745.175256 1101.785522 C746.843713 1101.069946 749.134606 1101.522095 751.083947 1101.809814 C754.178796 1102.266724 757.248132 1103.666016 760.291589 1103.564819 C772.135339 1103.170288 783.967614 1102.390259 795.798424 1101.660522 C804.973717 1101.094604 814.155602 1100.840942 823.331139 1099.932739 C828.603844 1099.410889 834.321862 1099.349365 839.386193 1098.685059 C848.003381 1097.554565 856.628625 1096.209717 865.326134 1095.753296 C870.416711 1095.486206 876.241174 1096.198364 880.518151 1095.113892 C889.795495 1092.761353 899.197594 1093.605591 908.339562 1091.682129 C913.111535 1090.678101 917.990319 1091.594727 922.657433 1091.331055 C932.152917 1090.794678 941.266076 1084.996948 951.223351 1089.588379 C952.597497 1090.221680 954.564172 1089.933105 956.172692 1089.628906 C961.639733 1088.595093 967.231286 1087.061646 972.668786 1087.832153 C984.185876 1089.464111 995.402550 1085.963135 1007.082360 1087.051147 C1015.834069 1087.866577 1025.121300 1084.207397 1034.557091 1085.478394 C1038.452599 1086.002930 1042.644738 1084.356079 1046.697839 1083.671875 C1050.537804 1083.023682 1054.369958 1082.328125 1058.209924 1081.679810 C1062.263024 1080.995483 1067.028649 1078.659058 1070.237878 1080.007568 C1078.223229 1083.363403 1085.479455 1075.082886 1093.041466 1079.639893 C1102.746667 1074.637695 1113.789635 1076.967407 1123.956628 1073.845947 C1137.621667 1069.650879 1151.781335 1067.082886 1165.495690 1063.028564 C1178.796471 1059.096191 1191.860070 1054.327759 1204.924279 1049.637695 C1224.171471 1042.728394 1242.947961 1034.899658 1255.311852 1017.303589 C1260.852257 1009.418579 1266.501672 1001.690308 1268.170373 991.608521 C1269.854943 981.432129 1271.920251 971.777344 1270.390588 961.020996 C1267.673791 941.917480 1258.235436 928.540405 1241.731652 919.759644 C1233.312951 915.280396 1224.279748 911.965820 1215.795495 907.598022 C1206.409875 902.766357 1203.211144 892.860962 1198.146935 884.534424 C1201.375939 877.396973 1198.853844 868.419800 1204.585656 862.249390 C1211.851525 854.427612 1219.175133 846.520386 1230.005578 840.675781 z"/><path class="selected"  fill="#000000" opacity="1.000000" stroke="none"
 	d="
M1033.505578 89.175781 C1042.579674 81.105194 1052.374230 75.730042 1063.525475 73.219421 C1080.358361 69.429596 1096.831139 66.493073 1113.616906 75.418213 C1128.377404 83.266510 1135.499718 95.666718 1139.947350 110.549835 C1141.639245 116.211731 1144.283288 122.260223 1143.631799 127.795654 C1142.628625 136.318695 1142.557702 145.659546 1137.451257 153.040741 C1125.794396 169.890137 1110.087365 179.306915 1088.857384 179.910706 C1072.630578 180.372223 1058.566369 174.643860 1045.107384 167.305450 C1038.991174 163.970642 1034.050622 157.816803 1029.674401 152.101196 C1022.125573 142.242157 1017.943322 130.702454 1020.219445 118.265656 C1022.112389 107.922089 1025.189294 97.606781 1033.505578 89.175781 M1138.005578 126.675781 C1137.338830 121.964569 1136.692590 117.250397 1136.001794 112.542725 C1133.669762 96.651001 1115.184533 77.301758 1099.359338 75.857758 C1081.382897 74.217499 1063.805260 76.418243 1047.636803 85.636505 C1031.504601 94.834106 1027.162804 110.453400 1024.369347 127.039551 C1029.427087 138.490723 1031.351403 151.849701 1043.963097 158.664246 C1051.581628 162.780823 1058.798913 167.791290 1066.727868 171.142883 C1076.231530 175.160217 1085.491540 176.863800 1098.574792 173.534363 C1110.799157 170.423431 1121.800378 165.266205 1129.248376 153.776489 C1134.550622 145.597229 1137.587121 137.061493 1138.005578 126.675781 z"/><path class="selected"  fill="#000000" opacity="1.000000" stroke="none"
 	d="
M536.005578 417.675781 C536.005578 403.372498 535.979089 390.068970 536.063439 376.766235 C536.069176 375.848083 536.901574 374.935242 537.349694 374.019958 C538.055260 374.725464 539.179284 375.328979 539.381066 376.157227 C539.832970 378.011963 539.780968 379.984009 540.012414 381.898743 C542.679650 403.959229 540.308800 426.274353 542.415368 448.219604 C544.918175 474.292847 542.897546 500.267151 544.036217 526.251221 C544.519982 537.290894 545.351403 548.315186 545.992272 559.348389 C546.088464 561.005676 546.195031 562.707825 545.902795 564.317627 C545.800378 564.881104 544.556115 565.411438 543.748864 565.604370 C543.299645 565.711792 542.303674 565.195435 542.191979 564.786133 C541.372521 561.784119 540.234826 558.761536 540.085168 555.701965 C539.252526 538.691895 538.379479 521.674683 538.082970 504.650024 C537.747155 485.366089 538.215173 466.068542 537.915612 446.783386 C537.769982 437.406555 536.672204 428.044495 536.005578 417.675781 z"/><path class="selected"  fill="#000000" opacity="1.000000" stroke="none"
 	d="
M1172.005578 101.675781 C1177.102502 100.342407 1181.120690 98.276001 1185.312341 97.826569 C1194.377770 96.854523 1202.080407 93.513367 1209.193200 87.856995 C1211.177331 86.278961 1214.908532 86.897552 1217.838219 86.508392 C1216.009118 88.897491 1214.597741 91.846008 1212.278161 93.578278 C1202.585656 100.816223 1191.403771 104.324280 1179.470788 105.733276 C1178.006921 105.906158 1176.666100 107.274231 1175.215905 107.382050 C1171.060632 107.691010 1169.269616 105.893555 1172.005578 101.675781 z"/><path class="selected"  fill="#000000" opacity="1.000000" stroke="none"
 	d="
M1091.505578 16.175781 C1093.565270 24.432190 1092.068566 32.189240 1091.978722 39.944733 C1091.944665 42.893921 1087.805871 45.114075 1085.217614 43.611328 C1084.883630 43.417511 1084.885339 42.309692 1085.022668 41.689789 C1087.742150 29.421844 1085.255822 17.476471 1082.867638 5.517517 C1082.645959 4.407562 1082.360558 3.162140 1082.659875 2.142517 C1082.906213 1.302856 1083.976281 0.704956 1084.681359 0.000000 C1085.122643 0.598114 1085.729211 1.134613 1085.978722 1.804169 C1087.696130 6.412445 1089.338952 11.048584 1091.505578 16.175781 z"/><path class="selected"  fill="#000000" opacity="1.000000" stroke="none"
 	d="
M1174.505578 187.175751 C1175.946007 188.616272 1176.977868 189.484436 1177.798180 190.520142 C1178.453210 191.347229 1178.850793 192.378235 1179.362633 193.318787 C1178.226891 193.087708 1176.861047 193.184204 1175.991540 192.573792 C1168.758263 187.495636 1161.457848 182.485199 1154.570397 176.964355 C1153.041955 175.739105 1151.814294 171.419800 1152.629479 170.534760 C1154.546593 168.453796 1157.157922 169.649109 1159.231774 171.825745 C1164.047204 176.879761 1169.067956 181.738129 1174.505578 187.175751 z"/><path class="selected"  fill="#000000" opacity="1.000000" stroke="none"
 	d="
M977.505578 432.175781 C978.005578 438.650696 978.005578 444.625549 978.005578 450.600464 C978.005578 452.592102 978.360802 454.670532 977.901330 456.549805 C977.477624 458.282837 976.179162 459.802002 975.265954 461.415405 C974.179162 459.715576 972.245812 458.059875 972.154504 456.308167 C971.792199 449.356323 971.743127 442.356018 972.231652 435.419739 C972.326989 434.066345 975.338830 432.918396 977.505578 432.175781 z"/><path class="selected"  fill="#000000" opacity="1.000000" stroke="none"
 	d="
M1026.505578 57.175781 C1027.708947 58.379181 1028.684777 58.966888 1029.045373 59.815887 C1029.472497 60.821411 1029.369347 62.052185 1029.496056 63.185303 C1028.597375 63.280273 1027.554772 63.712463 1026.829064 63.402466 C1025.136315 62.679382 1023.437096 61.792694 1022.023034 60.628876 C1017.296349 56.738464 1012.657067 52.738647 1008.082848 48.669891 C1007.382043 48.046692 1007.201867 46.838196 1006.780968 45.900330 C1007.744714 45.825500 1008.816613 45.436768 1009.654992 45.725708 C1016.053551 47.931213 1021.615807 51.443054 1026.505578 57.175781 z"/><path class="selected"  fill="#000000" opacity="1.000000" stroke="none"
 	d="
M968.005578 135.675781 C969.999474 135.675781 971.039635 135.488556 971.976403 135.719940 C973.358117 136.061188 974.666100 136.700409 976.005578 137.212708 C975.179162 138.526855 974.596764 140.682007 973.482751 141.005432 C969.301110 142.219482 964.959679 142.919281 960.648522 143.632599 C959.036217 143.899384 957.331017 143.551392 955.689538 143.708344 C953.782555 143.890717 951.899132 144.319855 950.005578 144.641907 C951.611535 143.047241 952.949792 140.877533 954.879845 139.979034 C958.750695 138.177155 962.944909 137.069824 968.005578 135.675781 z"/><path class="selected"  fill="#000000" opacity="1.000000" stroke="none"
 	d="
M970.005578 361.675781 C970.005578 371.275879 970.087975 379.877686 969.901696 388.473755 C969.878258 389.556885 968.440514 390.609253 967.657922 391.675781 C967.107140 390.708191 966.094567 389.748230 966.078576 388.771851 C965.948815 380.835449 966.005944 372.895996 966.005334 364.957458 C966.005090 362.283081 966.702966 360.263245 970.005578 361.675781 z"/><path class="selected"  fill="#000000" opacity="1.000000" stroke="none"
 	d="
M1158.505578 60.175781 C1156.152550 63.195465 1154.418053 65.817261 1152.382165 68.179382 C1151.669030 69.006836 1150.214684 69.195435 1149.098595 69.675781 C1148.734216 68.201324 1147.567590 66.196503 1148.135094 65.338074 C1151.920251 59.612305 1156.011681 54.082153 1160.197472 48.637604 C1160.682336 48.007111 1162.360680 48.294159 1163.485680 48.155884 C1163.134972 48.853210 1162.716637 49.525299 1162.445275 50.252228 C1161.275231 53.384674 1160.148278 56.533173 1158.505578 60.175781 z"/><path class="selected"  fill="#000000" opacity="1.000000" stroke="none"
 	d="
M968.005578 325.675781 C967.085656 328.262390 966.165734 329.848938 965.245812 331.435547 C964.832360 330.127258 964.689538 328.639343 963.960168 327.540833 C960.200158 321.878418 962.698815 315.597961 962.083825 309.638611 C962.022179 309.041931 963.049889 308.332764 963.571984 307.675781 C964.383141 308.371582 965.770470 308.967590 965.911217 309.779541 C966.766930 314.717651 967.338830 319.704895 968.005578 325.675781 z"/><path class="selected"  fill="#000000" opacity="1.000000" stroke="none"
 	d="
M990.005578 323.675781 C989.083947 326.264221 988.162194 327.852600 987.240441 329.440918 C986.162194 327.745605 984.372643 326.137573 984.151940 324.337097 C983.675744 320.455200 983.828088 316.460815 984.127038 312.543335 C984.204430 311.528931 985.618859 310.099060 986.690392 309.784912 C988.988610 309.111084 990.253381 310.087830 990.060021 312.828796 C989.829308 316.096130 990.005578 319.392151 990.005578 323.675781 z"/><path class="selected"  fill="#000000" opacity="1.000000" stroke="none"
 	d="
M982.505578 384.175781 C983.338830 382.150513 983.505334 380.561584 984.056359 379.119446 C984.528161 377.884277 985.439904 376.817200 986.157067 375.675781 C986.773156 376.918213 987.873864 378.142456 987.921349 379.406189 C988.120812 384.721313 988.099328 390.051636 987.904137 395.367126 C987.875085 396.162109 986.490319 396.907410 985.732751 397.675720 C985.157067 397.058228 984.219567 396.518921 984.066369 395.810059 C983.269494 392.122437 982.672326 388.391602 982.505578 384.175781 z"/><path class="selected"  fill="#000000" opacity="1.000000" stroke="none"
 	d="
M282.005578 463.675781 C279.346215 463.675781 277.665307 463.830933 276.037194 463.605408 C275.305627 463.504089 274.224755 462.717712 274.122765 462.105408 C274.000512 461.371765 274.613488 459.895935 275.151025 459.768738 C280.067345 458.605469 285.011864 457.489868 290.008202 456.789062 C291.194787 456.622742 292.606774 458.064270 293.915124 458.766235 C292.657494 459.736084 291.529320 461.020203 290.112572 461.604004 C287.844140 462.538696 285.384423 463.009094 282.005578 463.675781 z"/><path class="selected"  fill="#000000" opacity="1.000000" stroke="none"
 	d="
M297.505578 419.175781 C294.689416 419.675781 292.369408 419.757629 290.058190 419.650269 C288.155419 419.561951 286.263024 419.249451 284.366051 419.036255 C285.958825 417.869934 287.401208 416.309692 289.179955 415.630676 C291.761620 414.645264 294.647301 413.593323 297.294152 413.823853 C302.619225 414.287659 299.944176 416.705750 297.505578 419.175781 z"/><path class="selected"  fill="#000000" opacity="1.000000" stroke="none"
 	d="
M302.505578 390.175781 C298.115197 391.675781 294.258080 392.859192 290.315942 393.573242 C288.990319 393.813416 287.448571 392.859985 286.005578 392.452148 C286.991784 390.873901 287.891808 388.011353 288.978905 387.938599 C293.823571 387.613708 298.721947 388.084534 303.599572 388.299805 C303.645470 388.301758 303.774621 388.794312 303.685143 388.961121 C303.535119 389.240417 303.239709 389.441650 302.505578 390.175781 z"/><path class="selected"  fill="#000000" opacity="1.000000" stroke="none"
 	d="
M1054.005578 207.675781 C1053.539757 209.808289 1053.248864 211.059998 1052.574059 212.050049 C1050.803063 214.648743 1048.864709 217.133301 1046.993005 219.663330 C1046.663903 218.474121 1045.892419 217.211182 1046.076623 216.107727 C1047.368249 208.370056 1048.638024 206.959717 1054.005578 207.675781 z"/><path class="selected"  fill="#000000" opacity="1.000000" stroke="none"
 	d="
M990.005578 463.675781 C989.501549 466.342468 989.296105 469.249512 988.440392 469.455444 C985.194054 470.236816 986.130212 467.401184 986.021691 465.650269 C985.940392 464.338318 985.940392 463.013245 986.021691 461.701294 C986.130212 459.950378 985.194054 457.114807 988.440270 457.896179 C989.295983 458.102173 989.501427 461.009155 990.005578 463.675781 z"/><path class="selected"  fill="#000000" opacity="1.000000" stroke="none"
 	d="
M1006.005578 185.675812 C1007.887048 185.890594 1009.300866 185.836823 1009.566003 186.362518 C1011.740685 190.673462 1006.975060 189.876587 1005.550622 190.732422 C1003.754845 191.811340 1000.868859 191.075989 998.453210 191.123413 C998.840905 190.437256 999.066857 189.529114 999.646813 189.106628 C1001.357995 187.859985 1003.209191 186.805511 1006.005578 185.675812 z"/><path class="selected"  fill="#000000" opacity="1.000000" stroke="none"
 	d="
M284.505578 499.175781 C282.877770 498.214600 281.749963 497.753479 280.622155 497.292358 C281.376855 496.126709 281.889977 494.568115 282.957665 493.911682 C283.920495 493.319702 285.899499 493.180664 286.702538 493.794250 C288.098901 494.861389 288.934716 496.662109 290.005578 498.155273 C288.338891 498.662048 286.672204 499.168884 284.505578 499.175781 z"/><path class="selected"  fill="#000000" opacity="1.000000" stroke="none"
 	d="
M1125.505578 209.175781 C1124.780724 209.451050 1124.409508 209.257324 1124.354333 208.996704 C1123.845055 206.591553 1123.390343 204.174927 1122.919762 201.761597 C1123.543664 201.733032 1124.691979 201.589783 1124.714440 201.692688 C1125.219567 204.003967 1125.600793 206.342468 1125.505578 209.175781 z"/><path class="selected"  fill="#000000" opacity="1.000000" stroke="none"
 	d="
M413.505578 1605.175781 C412.731042 1604.617065 412.444665 1603.560669 412.237023 1602.488892 C412.230798 1602.456299 413.045251 1602.264648 413.477013 1602.147217 C413.653283 1602.990112 413.829430 1603.832886 413.505578 1605.175781 z"/><path class="selected"  fill="#000000" opacity="1.000000" stroke="none"
 	d="
M693.505578 418.175781 C695.617272 424.767334 690.689904 430.834290 693.926720 436.992004 C694.221642 437.553345 693.409508 438.696716 693.111535 439.569885 C692.641686 439.170715 692.204064 438.724365 691.697106 438.379700 C687.065392 435.231018 686.891564 430.517883 688.714684 426.247681 C690.102013 422.998047 690.886559 422.085327 686.566735 421.550781 C679.341759 420.656738 678.560509 419.340881 682.138268 413.420593 C685.088097 408.539429 689.261437 404.406555 692.757287 399.838501 C693.427453 398.962769 693.618981 397.612793 693.671838 396.465149 C693.682336 396.241394 691.999474 395.647217 691.145592 395.728333 C687.989831 396.027893 684.858727 396.577576 681.708581 396.949463 C680.589074 397.081665 679.441369 396.974609 678.306481 396.976685 C678.808923 395.606934 678.926110 393.628479 679.903771 393.009399 C681.388757 392.069397 683.548791 391.531372 685.284753 391.780273 C689.960168 392.450439 696.197106 388.914734 699.031701 394.114258 C701.856164 399.295410 694.717004 402.213745 693.459679 406.942505 C692.868981 409.164246 689.790612 410.649902 688.094445 412.681824 C687.151574 413.811279 686.732629 415.378113 686.077599 416.747925 C687.334313 416.390564 688.638512 415.643494 689.833947 415.789246 C690.951134 415.925476 691.952966 417.009094 693.505578 418.175781 z"/><path class="selected"  fill="#000000" opacity="1.000000" stroke="none"
 	d="
M680.505578 258.175781 C687.633141 257.675781 694.260705 257.652466 700.887902 257.703003 C701.799157 257.709900 702.707482 258.083496 703.617150 258.287354 C703.173180 258.990356 702.830773 259.790588 702.267052 260.378906 C700.204064 262.531738 697.950768 264.511047 695.982507 266.743958 C691.630700 271.680786 691.912438 273.228394 695.643273 278.526917 C697.149010 280.665344 698.152673 283.911438 697.798180 286.430054 C697.253747 290.296631 695.351281 293.974915 693.998254 297.723328 C693.568444 298.913757 693.052941 300.073242 692.576623 301.246826 C691.719567 299.944946 690.504235 298.743652 690.102990 297.313782 C689.671960 295.777893 689.427209 293.727234 690.104577 292.421875 C693.238854 286.382385 692.433556 281.682129 686.999474 277.213013 C685.966149 276.363220 687.114953 272.052795 688.144372 269.732788 C689.144982 267.477356 691.353478 265.776794 692.850549 263.701904 C693.070519 263.396973 692.275231 261.761108 691.972985 261.767944 C688.087487 261.855652 683.774987 261.159180 680.447716 262.636536 C677.255456 264.053772 677.592736 261.088013 676.106042 260.776306 C677.405846 260.076111 678.705773 259.375977 680.505578 258.175781 z"/><path class="selected"  fill="#000000" opacity="1.000000" stroke="none"
 	d="
M376.005578 971.675781 C368.274865 971.589111 361.899499 972.170166 355.390832 974.950439 C347.059411 978.509155 343.336388 974.934204 344.005456 965.637451 C344.523766 958.435791 354.151818 945.402710 360.894494 944.056030 C363.560509 943.523560 367.130334 944.895142 369.557946 946.502930 C372.155846 948.223389 373.889977 951.246460 376.007897 953.695068 C376.467370 954.226318 376.956261 954.732178 377.431603 955.249756 C377.622887 954.663330 377.849938 954.085815 377.999474 953.488892 C378.680138 950.773071 379.598229 948.084351 379.943566 945.324951 C380.443200 941.334229 380.317467 937.409790 376.264123 934.872070 C375.164513 934.183350 373.804162 933.168457 373.522057 932.059326 C372.745080 929.003906 371.293908 925.331177 372.331017 922.820190 C373.413537 920.199585 376.384728 922.178467 378.924523 923.232422 C381.764123 924.410767 385.550378 923.094849 388.679894 923.862549 C390.684411 924.354492 393.055016 926.324219 393.822594 928.215332 C395.091759 931.342285 392.652306 931.779663 389.970055 931.853760 C389.284020 931.872803 388.100915 934.084961 388.093591 935.294922 C388.034142 945.225220 386.234460 954.610718 382.348840 963.905640 C380.976525 967.188477 378.824303 969.133911 376.005578 971.675781 z"/><path class="selected"  fill="#000000" opacity="1.000000" stroke="none"
 	d="
M436.005578 813.675781 C434.981530 823.482788 431.645470 831.871826 431.786584 840.959106 C431.834557 844.043701 429.348473 847.171997 428.003136 850.272827 C426.337853 854.110962 422.373864 852.650757 419.810509 853.948242 C415.328332 856.217407 410.939294 855.711060 406.535363 855.583984 C397.175500 855.314087 394.346520 850.884644 396.911950 841.705811 C397.589562 839.281494 397.498132 836.651978 398.035607 834.176636 C399.617638 826.890991 409.311364 817.694458 415.812096 823.765747 C418.361779 826.146973 420.022546 829.502197 421.983605 832.482666 C422.999352 834.026855 423.786828 835.721191 424.677697 837.347778 C425.120324 835.421753 425.660119 833.512085 425.986901 831.566528 C426.829919 826.546753 424.284997 821.208740 427.736047 816.246704 C428.220177 815.550659 425.220910 812.197510 423.566003 810.309204 C421.630578 808.100708 418.216393 805.768677 420.241662 802.956421 C422.050500 800.444580 425.789635 799.204102 428.867028 797.827515 C429.463586 797.560791 431.323937 799.032837 431.928063 800.088135 C433.357751 802.585327 435.054650 803.947998 438.118615 803.780273 C439.381676 803.711182 441.606286 804.559937 441.829064 805.404053 C442.390343 807.530884 442.540612 810.026978 438.826379 809.995728 C437.893761 809.987915 436.946252 811.735107 436.005578 813.675781 z"/><path class="selected"  fill="#000000" opacity="1.000000" stroke="none"
 	d="
M320.005578 869.675781 C317.434167 864.719116 311.498742 863.260498 311.922204 856.995972 C312.242150 852.261353 315.727746 846.179810 320.066735 846.923706 C325.395348 847.837402 330.257287 851.494507 335.270104 854.064941 C335.363488 854.112793 335.036095 855.675293 334.540734 856.051636 C332.801720 857.373047 330.486413 858.146729 329.175133 859.764893 C327.679894 861.610107 325.550256 864.957764 326.256799 866.227295 C329.601037 872.235840 327.475304 878.467773 327.892052 884.531372 C328.105553 887.637939 328.265832 892.291260 326.470666 893.672485 C322.699059 896.573975 317.551110 899.430054 313.096276 899.243652 C307.908898 899.026611 302.857995 899.682861 297.748803 899.702515 C287.998681 899.740112 283.954858 894.926392 286.005700 885.508423 C287.736108 877.561523 298.704491 871.132568 306.394982 873.758667 C307.787682 874.234253 309.112267 875.596558 309.942223 876.887695 C311.608117 879.479492 312.675500 882.470947 314.444176 884.976807 C315.673547 886.718750 317.660729 887.925903 319.309289 889.372070 C319.541466 887.469849 319.929894 885.571167 319.974084 883.664551 C320.074425 879.337036 320.005578 875.005615 320.005578 869.675781 z"/><path class="selected"  fill="#000000" opacity="1.000000" stroke="none"
 	d="
M1031.505578 877.175781 C1030.108239 877.445190 1029.006310 877.459106 1028.365075 876.922485 C1027.549889 876.240356 1027.108239 875.111816 1026.505578 874.175781 C1027.636925 874.307129 1028.865441 874.210571 1029.869591 874.639648 C1030.716882 875.001709 1031.303551 875.973755 1031.505578 877.175781 z"/><path class="selected"  fill="#000000" opacity="1.000000" stroke="none"
 	d="
M846.505578 1052.175781 C848.597985 1051.675781 850.203088 1051.558228 851.777062 1051.728394 C852.497521 1051.806274 853.156457 1052.450684 853.843346 1052.838013 C853.322106 1053.117310 852.771447 1053.677856 852.284631 1053.627075 C850.181359 1053.407471 848.096886 1053.009155 846.505578 1052.175781 z"/><path class="selected"  fill="#000000" opacity="1.000000" stroke="none"
 	d="
M518.505578 810.175781 C519.056359 810.958374 519.107140 812.240845 519.157922 813.523438 C518.121423 813.226562 517.084924 812.929688 516.048424 812.632935 C516.700768 811.980469 517.353112 811.328125 518.505578 810.175781 z"/><path class="selected"  fill="#000000" opacity="1.000000" stroke="none"
 	d="
M1030.005578 868.175781 C1031.169884 867.840088 1032.334191 868.004395 1033.498498 868.168701 C1033.400719 868.604370 1033.303063 869.040161 1033.205529 869.475830 C1032.138879 869.209106 1031.072228 868.942505 1030.005578 868.175781 z"/><path class="selected"  fill="#000000" opacity="1.000000" stroke="none"
 	d="
M852.505578 1044.175781 C853.848473 1043.851929 854.691247 1044.028076 855.534142 1044.204346 C855.416711 1044.636108 855.225060 1045.450562 855.192467 1045.444214 C854.120690 1045.236694 853.064294 1044.950317 852.505578 1044.175781 z"/><path class="selected"  fill="76dbd1" opacity="1.000000" stroke="none"
 	d="
M1030.005578 867.175781 C1029.387780 867.293701 1028.769860 866.911499 1028.152062 866.529297 C1028.769860 866.578125 1029.387780 866.626953 1030.005578 867.175781 z"/></svg>
