<?xml version="1.0" encoding="UTF-8"?>
<svg width="57px" height="60px" viewBox="0 0 57 60" version="1.1" xmlns="http://www.w3.org/2000/svg" xmlns:xlink="http://www.w3.org/1999/xlink">
    <!-- Generator: Sketch 62 (91390) - https://sketch.com -->
    <title>concepting</title>
    <desc>Created with Sketch.</desc>
    <g id="Page-1" stroke="none" stroke-width="1" fill="none" fill-rule="evenodd">
        <g id="About-me-" transform="translate(-376.000000, -1779.000000)" fill="#1E1E21" fill-rule="nonzero">
            <g id="Group-2" transform="translate(199.000000, 1674.000000)">
                <g id="Group-3">
                    <g id="concepting" transform="translate(177.000000, 105.000000)">
                        <path d="M46.9130357,17.036 C47.1038765,17.2235494 47.3627303,17.3289434 47.6326607,17.329 C47.7905111,17.3287468 47.9461864,17.2928203 48.0876429,17.224 L55.0457143,13.806 C55.3600034,13.6519211 55.5712251,13.3495297 55.6045179,13.006 L56.4739339,3.606 C56.4739339,3.591 56.4676607,3.578 56.4739339,3.563 C56.4755805,3.46531268 56.462544,3.36790653 56.4350893,3.274 C56.4301816,3.23555805 56.4227011,3.19747557 56.4126964,3.16 C56.3632665,3.02796213 56.2855081,2.90791403 56.1846964,2.808 C56.065123,2.67084688 55.8970924,2.583303 55.7144464,2.563 C55.6175777,2.53552301 55.5170126,2.52270926 55.4162143,2.525 C55.4009464,2.525 55.3877143,2.518 55.3724464,2.519 L45.8035714,3.371 C45.4539073,3.40370863 45.1461161,3.61122473 44.9892857,3.92 L41.51025,10.755 C41.314157,11.1403051 41.3912594,11.6056823 41.7016071,11.91 L41.8512321,12.057 L39.8155179,14.057 L39.5162679,13.762 C39.1344737,13.386752 38.6165568,13.1759271 38.0765089,13.1759271 C37.536461,13.1759271 37.0185442,13.386752 36.63675,13.762 L35.3064107,15.069 C32.6264397,12.7800464 29.7710538,10.6972237 26.7655714,8.839 C27.79813,6.87954338 27.6526928,4.52140143 26.3868756,2.69876587 C25.1210584,0.876130305 22.9391357,-0.116866495 20.7054888,0.113156951 C18.4718419,0.343180398 16.5469312,1.75910348 15.6933214,3.8 C10.2508393,2.307 6.01655357,2.823 3.42814286,5.366 C-2.10594643,10.8 2.05607143,23.887 13.2983036,36.682 L3.46071429,46.359 C3.3598725,46.453505 3.28014738,46.5675891 3.22660714,46.694 C3.21948214,46.708 3.21439286,46.721 3.20828571,46.735 C3.19607143,46.766 3.17876786,46.793 3.16960714,46.825 L0.560839286,56.225 C0.477401839,56.5257141 0.541455007,56.8474544 0.734066411,57.0951231 C0.926677815,57.3427919 1.22581881,57.4880636 1.54307143,57.488 C1.6331332,57.4877466 1.7227786,57.4759812 1.80975,57.453 L11.3776071,54.89 C11.4084894,54.8789735 11.4387314,54.8662877 11.4681964,54.852 L11.514,54.833 C11.6394041,54.7814561 11.7529498,54.7056132 11.8478571,54.61 L21.709875,44.929 C24.3887165,47.2181535 27.243469,49.3006763 30.2486786,51.158 C29.180004,53.1192022 29.3035017,55.5003344 30.5695503,57.3446575 C31.8355989,59.1889805 34.0363743,60.1937456 36.2876048,59.955238 C38.5388352,59.7167305 40.4709775,58.2741016 41.3076964,56.207 C43.0973247,56.7299333 44.9506083,57.0131567 46.8173571,57.049 C49.3107882,57.1794653 51.750863,56.3072069 53.5759286,54.633 C59.109,49.197 54.948,36.115 43.7027143,23.318 L45.0259286,22.018 C45.8206347,21.2370003 45.8206347,19.9709997 45.0259286,19.19 L44.7266786,18.89 L46.7623929,16.89 L46.9130357,17.036 Z M38.0678571,15.18 L43.5846429,20.6 L31.9790357,32 L26.4642857,26.582 L38.0678571,15.18 Z M24.3125357,25.864 L24.2993036,25.873 L20.8385893,29.273 C14.8423929,22.293 12.4310893,16.559 11.7908571,13.606 C14.8993929,14.24 20.6869286,16.612 27.7640893,22.473 L24.3125357,25.864 Z M25.0189286,27.994 L27.06075,30 L24.1578214,32.852 C23.4989286,32.1853333 22.840375,31.495 22.1821607,30.781 L25.0189286,27.994 Z M28.5,31.414 L30.5418214,33.42 L27.7050536,36.207 C26.9701607,35.553 26.2675,34.906 25.5970714,34.266 L28.5,31.414 Z M32.7006964,34.127 L32.7098571,34.114 L36.1603929,30.724 C42.1576071,37.705 44.5699286,43.439 45.2101607,46.393 C42.101625,45.759 36.3130714,43.387 29.2389643,37.528 L32.7006964,34.127 Z M18.4965,3.171 C19.5252526,2.16065291 21.0244983,1.76625806 22.4294856,2.13638016 C23.8344729,2.50650226 24.9317509,3.58491097 25.3079856,4.96538016 C25.6842203,6.34584935 25.2822526,7.81865291 24.2535,8.829 C22.6416641,10.3375715 20.1083359,10.3375715 18.4965,8.829 C17.7326023,8.07880796 17.303423,7.06114673 17.303423,6 C17.303423,4.93885327 17.7326023,3.92119204 18.4965,3.171 L18.4965,3.171 Z M14.6571429,38.179 C15.295,38.8716667 15.9545714,39.5613333 16.6358571,40.248 L7.63392857,49.1 L5.93003571,47.424 L5.59108929,47.09 L14.6571429,38.179 Z M11.1048214,52.506 L9.06910714,50.506 L18.0659464,41.659 C18.7662321,42.329 19.467875,42.9763333 20.170875,43.601 L11.1048214,52.506 Z M2.99046429,55.062 L4.66992857,49.015 L9.1485,53.415 L2.99046429,55.062 Z M38.5035,56.829 C36.8916641,58.3375715 34.3583359,58.3375715 32.7465,56.829 C31.5818246,55.6851031 31.2332651,53.964537 31.8633729,52.4696911 C32.4934806,50.9748452 33.978149,50.0001458 35.625,50.0001458 C37.271851,50.0001458 38.7565194,50.9748452 39.3866271,52.4696911 C40.0167349,53.964537 39.6681754,55.6851031 38.5035,56.829 Z M52.1326071,53.218 C50.1040179,55.21 46.4244643,55.548 41.7199286,54.237 C41.7199286,54.158 41.7321429,54.08 41.7321429,54 C41.7347707,51.6218541 40.3058648,49.4671765 38.0905363,48.508744 C35.8752077,47.5503115 33.2926382,47.9694774 31.5087857,49.577 C28.2560421,47.5847228 25.1821712,45.323529 22.3205893,42.818 C21.1388571,41.8 19.95,40.7 18.7774286,39.552 C17.6048571,38.404 16.4892857,37.234 15.4510714,36.068 C4.64448214,24.062 0.0946607143,11.471 4.86739286,6.782 C6.897,4.79 10.5765536,4.452 15.2800714,5.763 C15.2800714,5.842 15.2678571,5.92 15.2678571,6 C15.2652293,8.3781459 16.6941352,10.5328235 18.9094637,11.491256 C21.1247923,12.4496885 23.7073618,12.0305226 25.4912143,10.423 C28.4347777,12.2289291 31.2301815,14.2581072 33.8518929,16.492 L29.2063929,21.056 C21.6040179,14.739 14.4576429,11.664 10.6549286,11.433 C10.3649217,11.4140374 10.0807046,11.5190224 9.87525,11.721 C9.6690102,11.9216406 9.55976513,12.1992393 9.57498214,12.484 C9.72969643,15.318 12.1002857,22.493 20.014125,31.411 C21.1632857,32.689 22.279875,33.857 23.427,34.984 C24.5578393,36.096 25.7477143,37.192 27.0699107,38.343 C34.9399821,45.074 42.42225,48.328 46.3450714,48.567 C46.3664464,48.567 46.3868036,48.567 46.4081786,48.567 C46.6877432,48.567386 46.9551628,48.4547853 47.1476776,48.2556238 C47.3401923,48.0564622 47.4408529,47.7882742 47.4260357,47.514 C47.2753929,44.756 45.0116786,37.884 37.6047321,29.304 L42.2502321,24.74 C52.5387321,36.5 56.7964286,48.634 52.1326071,53.218 Z M46.5506786,5.318 L52.7524821,4.764 L49.5218036,7.933 C49.2572049,8.18407447 49.1510872,8.55587789 49.2442368,8.90550732 C49.3373865,9.25513676 49.6153072,9.52818172 49.97118,9.61969716 C50.3270529,9.7112126 50.7054956,9.60695658 50.9610536,9.347 L54.1917321,6.173 L53.6288571,12.266 L47.8331786,15.112 L43.6538571,11.005 L46.5506786,5.318 Z M45.3231429,15.475 L43.2874286,17.475 L41.2517143,15.475 L43.2874286,13.475 L45.3231429,15.475 Z" id="Shape"></path>
                    </g>
                </g>
            </g>
        </g>
    </g>
</svg>