<?xml version="1.0" encoding="UTF-8"?>
<svg width="61px" height="60px" viewBox="0 0 61 60" version="1.1" xmlns="http://www.w3.org/2000/svg" xmlns:xlink="http://www.w3.org/1999/xlink">
    <!-- Generator: Sketch 62 (91390) - https://sketch.com -->
    <title>discovery</title>
    <desc>Created with Sketch.</desc>
    <g id="Page-1" stroke="none" stroke-width="1" fill="none" fill-rule="evenodd">
        <g id="About-me-" transform="translate(-377.000000, -1675.000000)" fill="#1E1E21" fill-rule="nonzero">
            <g id="Group-2" transform="translate(199.000000, 1674.000000)">
                <g id="Group-3">
                    <g id="discovery" transform="translate(178.000000, 1.000000)">
                        <path d="M37.4892054,18.9028061 C35.0371633,18.9028061 33.0416667,20.8573187 33.0416667,23.2601344 C33.0416667,25.6625792 35.0371633,27.6170918 37.4892054,27.6170918 C39.9420034,27.6170918 41.9375,25.6625792 41.9375,23.2601344 C41.9375,20.8573187 39.9420034,18.9028061 37.4892054,18.9028061 Z M37.4892054,26.098275 C35.8905405,26.098275 34.5896883,24.824931 34.5896883,23.2601344 C34.5896883,21.6949669 35.8905405,20.4216229 37.4892054,20.4216229 C39.0886262,20.4216229 40.3894784,21.6949669 40.3894784,23.2601344 C40.3894784,24.824931 39.0886262,26.098275 37.4892054,26.098275 Z" id="Shape"></path>
                        <path d="M38.3301081,16.4603995 C38.098973,16.4363294 37.8640276,16.4252882 37.6273163,16.4207391 C37.5810336,16.4202092 37.5364236,16.4130102 37.489955,16.4130102 C37.4862375,16.4130102 37.4827059,16.4136285 37.4789884,16.4136285 C37.4747133,16.4136285 37.4704382,16.4130102 37.4661631,16.4130102 C37.1634663,16.4130102 36.8659741,16.4330612 36.5720134,16.4647718 C29.7811787,16.9926778 24.540631,23.1362276 24.3114476,23.4094774 C24.0906286,23.6734084 24.0906286,24.0472223 24.3114476,24.3111533 C24.5309655,24.5729202 29.3503215,30.2215111 35.7245183,31.1613456 C36.2856737,31.2822256 36.8670893,31.3517857 37.4661632,31.3517857 C38.0301066,31.3517857 38.579366,31.2926928 39.1100379,31.1852389 C45.5560753,30.3114755 50.4465283,24.5749076 50.6677191,24.3111533 C50.8885381,24.0472223 50.8885381,23.6734084 50.6677191,23.4094774 C50.4376991,23.1352119 45.1578389,16.9472762 38.3301081,16.4603995 Z M43.8156385,23.8822213 C43.8156385,26.760332 41.6748282,29.1700271 38.8250921,29.7622376 C38.3854058,29.8195198 37.9415373,29.8600635 37.489955,29.8600635 C36.9961792,29.8600635 36.5114183,29.8120559 36.031769,29.7437766 C33.2202301,29.1246694 31.1166876,26.7345837 31.1166876,23.8822213 C31.1166876,20.7786475 33.6053623,18.2171127 36.7893938,17.8955021 C37.0182054,17.8796026 37.2465523,17.8610532 37.4783379,17.8607883 C37.6414428,17.8610974 37.8018526,17.872227 37.9618905,17.8840191 C38.0141213,17.8864924 38.066352,17.8886565 38.1183969,17.8919247 C41.3142315,18.2026266 43.8156385,20.7705212 43.8156385,23.8822213 Z M25.911456,23.8599621 C26.6727982,23.051254 28.4512462,21.311986 30.8097157,19.9127013 C30.0440983,21.0643078 29.594003,22.4228721 29.594003,23.8822213 C29.594003,25.3084467 30.0250461,26.6378179 30.7589719,27.7726415 C28.4280118,26.3789659 26.6677796,24.6615597 25.911456,23.8599621 Z M44.1388745,27.8263906 C44.8942688,26.680084 45.3383231,25.3309268 45.3383231,23.8822214 C45.3383231,22.4057361 44.8785624,21.0317581 44.0963092,19.871672 C46.490002,21.2781996 48.2977252,23.0446734 49.0677106,23.8606688 C48.3030226,24.6727335 46.5128645,26.4240144 44.1388745,27.8263906 Z" id="Shape"></path>
                        <path d="M24.4536663,10.4896813 C17.2654446,17.5310523 17.2654446,28.9884784 24.4536663,36.0298494 C28.0481522,39.5510859 32.7675554,41.3109694 37.4892084,41.3109694 C42.2093615,41.3109694 46.9317644,39.5499838 50.5255003,36.0298494 C57.7137221,28.9884784 57.7137221,17.5310522 50.5255003,10.4896813 C43.3365286,3.44867766 31.6411381,3.44867766 24.4536663,10.4896813 Z M49.4395801,34.9660583 C42.8498144,41.4208014 32.1278523,41.4208014 25.5395865,34.9660583 C18.9505708,28.5113152 18.9505708,18.0082154 25.5395865,11.5534723 C28.8340944,8.32610075 33.1612764,6.712415 37.4892084,6.712415 C41.8171403,6.712415 46.1450723,8.32610075 49.4395801,11.5534723 C56.0285959,18.0082154 56.0285959,28.5113152 49.4395801,34.9660583 Z" id="Shape"></path>
                        <path d="M20.3122283,7.05822019 C12.0404831,15.1626386 11.1380568,27.7873517 17.5915412,36.8861438 L14.3690821,40.0434167 C13.2542708,39.687586 11.9820098,39.9302041 11.0987642,40.7961301 L1.75122109,49.9545847 C0.62197766,51.060985 0,52.5370367 0,54.1116136 C0,55.6861905 0.621977737,57.1622423 1.75122109,58.2686426 C2.88046445,59.3750429 4.38736383,59.9844388 5.99407754,59.9844388 C7.60153616,59.9844388 9.10769056,59.3750428 10.236934,58.2686426 L19.5844771,49.110553 C20.4680952,48.2443533 20.715024,46.9984214 20.3523589,45.906435 L23.5754698,42.7488427 C27.6454201,45.5197239 32.4039222,46.9119838 37.1652176,46.9119838 C43.268793,46.9119838 49.3723684,44.6356894 54.0189517,40.0834653 C58.5210277,35.6728255 61,29.8083932 61,23.5710252 C61,17.3332923 58.5210277,11.46886 54.0189517,7.05822019 C44.7265301,-2.04622793 29.6061398,-2.04768754 20.3122283,7.05822019 Z M18.5058858,48.0537802 L9.15834267,57.2118698 C8.31736917,58.0358314 7.19408488,58.4897767 5.99407754,58.4897767 C4.79481512,58.4897767 3.67078592,58.0358314 2.82981241,57.2118698 C1.9888389,56.3875432 1.52552142,55.2866165 1.52552142,54.1116136 C1.52552142,52.9366107 1.98883898,51.835684 2.82981241,51.0113575 L12.1773555,41.852903 C12.506594,41.5303246 12.9393713,41.3690354 13.3714038,41.3690354 C13.8041811,41.3690354 14.2369584,41.5303246 14.5661969,41.852903 L18.5075617,45.7144936 C19.1641766,46.3601065 19.1637111,47.408897 18.5058858,48.0537802 Z M19.5280522,44.6004758 L15.7013994,40.8515962 L18.5105413,38.0992796 C19.0676211,38.7849412 19.6649245,39.4493013 20.3122282,40.0834654 C20.9594389,40.7174926 21.6374691,41.3026678 22.3371941,41.8484329 L19.5280522,44.6004758 Z M52.9403605,39.0266926 C44.2423558,47.5472883 30.0888243,47.5487479 21.3908196,39.0266926 C12.6928149,30.5042723 12.6928149,16.6374133 21.3908196,8.114993 C25.7401944,3.85396529 31.452706,1.72326901 37.1659625,1.72326901 C42.8784741,1.72326901 48.5909857,3.85396529 52.9403605,8.114993 C61.6383652,16.6374133 61.6383652,30.5042723 52.9403605,39.0266926 Z" id="Shape"></path>
                    </g>
                </g>
            </g>
        </g>
    </g>
</svg>