<?xml version="1.0" encoding="UTF-8"?>
<svg width="60px" height="46px" viewBox="0 0 60 46" version="1.1" xmlns="http://www.w3.org/2000/svg" xmlns:xlink="http://www.w3.org/1999/xlink">
    <!-- Generator: Sketch 62 (91390) - https://sketch.com -->
    <title>prototyping</title>
    <desc>Created with Sketch.</desc>
    <g id="Page-1" stroke="none" stroke-width="1" fill="none" fill-rule="evenodd">
        <g id="About-me-" transform="translate(-377.000000, -1884.000000)" fill="#1E1E21" fill-rule="nonzero">
            <g id="Group-2" transform="translate(199.000000, 1674.000000)">
                <g id="Group-3">
                    <g id="prototyping" transform="translate(178.000000, 210.000000)">
                        <g id="Group">
                            <path d="M58.9830508,0 L34.5762712,0 C34.0146257,0 33.559322,0.44771525 33.559322,1 L33.559322,20 L33.559322,20 C32.0272096,19.9908518 30.6947887,21.0307041 30.3559322,22.5 C30.3145218,22.6121529 30.2938571,22.7306881 30.2949153,22.85 L30.2949153,27.22 C30.3115641,27.5012419 30.2136751,27.7774321 30.0228664,27.9875762 C29.8320576,28.1977202 29.5640267,28.3245298 29.2779661,28.34 L26.440678,28.34 L26.440678,1 C26.440678,0.44771525 25.9853743,0 25.4237288,0 L1.01694915,0 C0.455303644,0 0,0.44771525 0,1 L0,45 C0,45.5522847 0.455303644,46 1.01694915,46 L25.4237288,46 C25.9853743,46 26.440678,45.5522847 26.440678,45 L26.440678,30.3 L29.2372881,30.3 C30.0626576,30.2842421 30.8478372,29.9466373 31.4200158,29.3614893 C31.9921944,28.7763413 32.3044779,27.9916072 32.2881356,27.18 L32.2881356,23.08 C32.3369061,22.4370979 32.9053682,21.9541325 33.559322,22 L33.559322,22 L33.559322,45 C33.559322,45.5522847 34.0146257,46 34.5762712,46 L58.9830508,46 C59.5446964,46 60,45.5522847 60,45 L60,1 C60,0.44771525 59.5446964,0 58.9830508,0 Z M24.4067797,14 L4.77966102,14 L24.4067797,2.74 L24.4067797,14 Z M21.6610169,2 L2.03389831,13.26 L2.03389831,2 L21.6610169,2 Z M6.10169492,44 L6.10169492,43 L20.3389831,43 L20.3389831,44 L6.10169492,44 Z M24.4067797,44 L22.3728814,44 L22.3728814,42 C22.3728814,41.4477153 21.9175777,41 21.3559322,41 L5.08474576,41 C4.52310025,41 4.06779661,41.4477153 4.06779661,42 L4.06779661,44 L2.03389831,44 L2.03389831,16 L24.4067797,16 L24.4067797,28.3 L22.3728814,28.3 L22.3728814,22 C22.3728814,21.4477153 21.9175777,21 21.3559322,21 L5.08474576,21 C4.52310025,21 4.06779661,21.4477153 4.06779661,22 L4.06779661,38 C4.06779661,38.5522847 4.52310025,39 5.08474576,39 L21.3559322,39 C21.9175777,39 22.3728814,38.5522847 22.3728814,38 L22.3728814,30.3 L24.4067797,30.3 L24.4067797,44 Z M18.0711864,28.3 C17.4576543,26.6825133 15.7309731,25.7518217 14.0142957,26.1133114 C12.2976183,26.474801 11.1099434,28.0191837 11.2238169,29.741886 C11.3376905,31.4645884 12.7186853,32.8447902 14.468507,32.9847128 C16.2183286,33.1246354 17.8079578,31.9819763 18.2033898,30.3 L20.3389831,30.3 L20.3389831,37 L6.10169492,37 L6.10169492,23 L20.3389831,23 L20.3389831,28.3 L18.0711864,28.3 Z M16.2711864,29.5 C16.2711864,30.3284271 15.588231,31 14.7457627,31 C13.9032944,31 13.220339,30.3284271 13.220339,29.5 C13.220339,28.6715729 13.9032944,28 14.7457627,28 C15.588231,28 16.2711864,28.6715729 16.2711864,29.5 Z M37.1389831,24.5 C37.5356313,24.8877236 38.1762331,24.8877236 38.5728814,24.5 L41.3898305,21.73 L41.4508475,21.67 L41.4508475,21.67 C41.5815346,21.5245662 41.6632396,21.3429205 41.6847458,21.15 C41.6898103,21.0867646 41.6898103,21.0232354 41.6847458,20.96 L41.6847458,20.96 C41.6660986,20.7211569 41.5657301,20.4955668 41.4,20.32 L41.4,20.32 L38.5728814,17.54 C38.1762331,17.1522764 37.5356313,17.1522764 37.1389831,17.54 C36.7446879,17.9300375 36.7446879,18.5599625 37.1389831,18.95 L38.2271186,20 L35.5932203,20 L35.5932203,2 L57.9661017,2 L57.9661017,28 L35.5932203,28 L35.5932203,22 L38.2271186,22 L37.1389831,23 C36.9368839,23.188794 36.8224565,23.4508885 36.8224565,23.725 C36.8224565,23.9991115 36.9368839,24.261206 37.1389831,24.45 L37.1389831,24.5 Z M35.5932203,30 L55.6271186,30 L35.5932203,43.13 L35.5932203,30 Z M37.9322034,44 L57.9661017,30.87 L57.9661017,44 L37.9322034,44 Z" id="Shape"></path>
                            <rect id="Rectangle" x="4.06779661" y="18" width="6.10169492" height="2"></rect>
                            <rect id="Rectangle" x="37.6271186" y="4" width="9.15254237" height="2"></rect>
                            <rect id="Rectangle" x="37.6271186" y="8" width="18.3050847" height="2"></rect>
                            <rect id="Rectangle" x="37.6271186" y="12" width="13.220339" height="2"></rect>
                            <rect id="Rectangle" x="42.7118644" y="16" width="13.220339" height="2"></rect>
                            <rect id="Rectangle" x="42.7118644" y="20" width="13.220339" height="2"></rect>
                            <rect id="Rectangle" x="42.7118644" y="24" width="10.1694915" height="2"></rect>
                        </g>
                    </g>
                </g>
            </g>
        </g>
    </g>
</svg>