<?xml version="1.0" encoding="UTF-8"?>
<svg width="55px" height="201px" viewBox="0 0 55 201" version="1.1" xmlns="http://www.w3.org/2000/svg" xmlns:xlink="http://www.w3.org/1999/xlink">
    <!-- Generator: Sketch 62 (91390) - https://sketch.com -->
    <title>noun_Arrow_593931</title>
    <desc>Created with Sketch.</desc>
    <g id="Page-1" stroke="none" stroke-width="1" fill="none" fill-rule="evenodd">
        <g id="About-me-" transform="translate(-953.000000, -1796.000000)" fill="#0881A3" fill-rule="nonzero">
            <g id="Group-2" transform="translate(199.000000, 1674.000000)">
                <g id="Group-3">
                    <g id="noun_Arrow_593931" transform="translate(778.404904, 225.068022) rotate(-45.000000) translate(-778.404904, -225.068022) translate(695.404904, 161.068022)">
                        <path d="M2.42961902,121.151121 C6.10044078,123.873112 11.2395912,124.261968 15.6445773,125.039679 C25.5557961,126.400675 35.2834737,127.567242 45.1946925,127.76167 C47.2136445,127.76167 49.9667608,119.595697 48.6819732,119.595697 C40.7897064,118.817985 32.7138985,118.040274 24.8216317,117.068134 C21.5178922,116.679278 18.3976937,116.290422 15.0939541,115.901566 C38.7707544,110.263156 61.8969315,101.708327 83.3712388,90.0426513 C94.7507862,83.8209574 105.946793,77.0159798 116.408635,69.2388625 C127.4211,61.2673172 138.066483,52.5180602 146.692914,41.8245239 C156.05351,30.3532759 163.395153,16.7433206 165.414105,1.57794179 C165.781187,-1.14404928 162.84453,3.71664905 162.660989,4.88321665 C158.623085,31.7142714 136.047531,49.6016412 115.858011,63.6004524 C96.0355738,77.4048357 74.3777255,88.2927999 51.9857127,96.653201 C39.5049188,101.319471 26.4735015,104.819174 13.4420843,107.735593 C11.7902145,108.124449 10.5054269,111.429724 9.95480362,112.985147 C9.95480362,113.179575 9.58772145,113.957287 9.40418036,114.734999 C9.03709818,114.540571 8.48647492,114.540571 8.11939274,114.346143 C7.38522839,114.151715 6.46752295,113.179575 5.7333586,113.179575 C4.99919425,112.985147 2.79670119,115.318283 4.08148881,113.762859 C9.40418036,107.541165 15.8281184,102.291611 21.8849743,96.847629 C27.391207,91.7925027 33.0809807,86.1540926 40.2390831,83.4321016 C41.8909529,82.8488178 43.7263638,76.8215519 42.6251173,77.0159798 C34.3657683,79.349115 27.7582891,86.3485206 21.5178922,91.9869306 C17.8470704,95.2922055 14.3597897,98.5974803 10.688968,102.097183 C7.56876948,105.20803 3.89794772,108.124449 1.69545467,112.207436 C0.0435848768,115.318283 -0.690579475,118.817985 2.42961902,121.151121 Z" id="Path"></path>
                    </g>
                </g>
            </g>
        </g>
    </g>
</svg>