<?xml version="1.0" encoding="UTF-8"?>
<svg width="163px" height="60px" viewBox="0 0 163 60" version="1.1" xmlns="http://www.w3.org/2000/svg" xmlns:xlink="http://www.w3.org/1999/xlink">
    <!-- Generator: Sketch 64 (93537) - https://sketch.com -->
    <title>logo</title>
    <desc>Created with Sketch.</desc>
    <g id="Page-1" stroke="none" stroke-width="1" fill="none" fill-rule="evenodd">
        <g id="logo">
            <g id="mu" fill-rule="nonzero">
                <rect id="Rectangle" fill-opacity="0.3" fill="#0881A3" x="4" y="29.5096419" width="159" height="7.42038567"></rect>
                <path d="M20.1865563,2.55795385e-13 C20.9258411,0.0241330122 21.0804,0.023057018 21.9126047,0.0132962137 C23.0776758,0.028129562 22.7797022,0.0300509802 23.7626998,0.0334326762 L23.7626998,0.0334326762 L23.7107694,25.5632521 C23.7220773,27.3890741 23.7107863,27.506378 23.7011742,29.572644 L23.7011742,29.572644 L19.5915539,29.5636548 C19.5907114,27.0377484 19.5963023,25.7042472 19.6083266,25.5631513 L19.6083266,25.5631513 L19.6182096,10.9513753 L13.6157055,23.8765377 C12.8376425,23.8878851 12.751586,23.8905492 12.3196083,23.8911744 L11.6221268,23.8911136 C10.9941357,23.8893099 10.9759349,23.8783859 10.3832083,23.8759318 L9.99580681,23.8755389 L4.04455798,10.9380635 L4.09699825,25.5632521 C4.10634567,26.2179331 4.09565199,27.0561191 4.09162094,27.8333453 L4.1008293,27.833683 L4.09984788,29.2159473 C4.10316808,29.3370866 4.1075017,29.4489499 4.1130777,29.549441 L4.1130777,29.549441 L4.10007487,29.549 L4.1008293,59.3785238 L0.00927789435,59.3785238 L0.00907486818,29.543 C0.00361266053,29.4047224 0.00679997384,29.259809 0.00956193993,29.1092456 L0.00927789435,27.833683 L0.0224337709,27.8348251 C0.0245935212,27.1578693 0.0207128374,26.4006783 0.0107917197,25.5632521 L0.0107917197,25.5632521 L0.044560167,0.0200596057 C1.21919831,0.0195606514 0.554744117,0.0220578806 1.66869652,0.0220578806 C2.47345301,0.0220578806 2.81792961,0.0183216605 3.45000488,0.0175233337 C3.45313112,0.0234732877 3.85597469,0.908962289 3.8587984,0.915113937 L3.8587984,0.915113937 L11.8345604,18.1839982 L19.7928193,0.935653792 C19.7997777,0.920526791 20.1790936,0.0147236149 20.1865563,2.55795385e-13 Z" id="Combined-Shape" fill="#000000"></path>
            </g>
            <text id="arialaura" fill="#000000" font-family="FiraSans-SemiBold, Fira Sans" font-size="16.7002098" font-weight="500">
                <tspan x="26" y="30">arialaura</tspan>
            </text>
            <g id="Group" transform="translate(90.000000, 0.000000)" fill="#000000" fill-rule="nonzero">
                <polygon id="Combined-Shape" points="31.5448408 4.72359301e-13 31.5448408 3.8308725 17.627 3.83 17.6279993 59.3785238 13.9168415 59.3785238 13.916 3.83 -4.74879395e-13 3.8308725 -4.74879395e-13 4.74290865e-13"></polygon>
            </g>
            <text id="allerini" fill="#000000" font-family="FiraSans-SemiBold, Fira Sans" font-size="16.7002098" font-weight="500">
                <tspan x="110.333333" y="30">allerini</tspan>
            </text>
        </g>
    </g>
</svg>