<svg width="237" height="90" viewBox="0 0 237 90" fill="none" xmlns="http://www.w3.org/2000/svg">
<path d="M237 44.2645H6V55.395H237V44.2645Z" fill="#0881A3" fill-opacity="0.3"/>
<path d="M30.2798 0C31.3888 0.0361995 31.6206 0.0345855 32.8689 0.0199443C34.6165 0.0421943 34.1696 0.0450765 35.6441 0.050149L35.5662 38.3449C35.5831 41.0836 35.5662 41.2596 35.5518 44.359L29.3873 44.3455C29.3861 40.5566 29.3945 38.5564 29.4125 38.3447L29.4273 16.4271L20.4236 35.8148C19.096 35.8342 19.1115 35.8367 18.1786 35.837L17.7141 35.837C16.453 35.837 16.5491 35.8168 15.4865 35.8136L14.9937 35.8133L6.06684 16.4071L6.1455 38.3449C6.15952 39.3273 6.14347 40.5852 6.13742 41.7514L6.15124 41.7505L6.15116 43.8728C6.15594 44.0358 6.16201 44.187 6.16962 44.3242L6.151 44.324L6.15124 89.0678H0.0139168L0.013 44.315L0 44.316C0.00527738 44.1125 0.00994965 43.9011 0.0140168 43.6816L0.0139168 41.7505L0.0336541 41.7511C0.0368861 40.736 0.0310639 39.6006 0.0161876 38.3449L0.0668403 0.0300894C1.66862 0.029409 0.990532 0.0324429 2.1094 0.0330001L2.50304 0.0330868C3.71018 0.0330868 4.22689 0.0274825 5.17501 0.026285C5.1797 0.0352099 5.78396 1.36344 5.7882 1.37267L17.7518 27.276L29.6892 1.40348C29.6997 1.38079 30.2686 0.0220854 30.2798 0Z" fill="#212121"/>
<path d="M44.5815 31.9021C46.0493 31.9021 47.1705 32.2161 47.9452 32.844C48.7198 33.4637 49.1072 34.3321 49.1072 35.4493V41.0391C49.1072 41.4713 49.2825 41.6874 49.6331 41.6874C49.7799 41.6874 49.9838 41.6262 50.2447 41.5039C50.5138 41.3735 50.738 41.2267 50.9174 41.0636V42.8005C49.8655 43.4447 48.9033 43.7668 48.0308 43.7668C47.4926 43.7668 47.0767 43.6771 46.7832 43.4977C46.4977 43.3183 46.298 43.0003 46.1838 42.5436C45.034 43.3591 43.8802 43.7668 42.7223 43.7668C41.8987 43.7668 41.1892 43.4895 40.594 42.935C40.0068 42.3805 39.7133 41.7159 39.7133 40.9413C39.7133 39.9546 40.0068 39.1758 40.594 38.605C41.1811 38.0342 42.2085 37.5368 43.6763 37.1128L46.1104 36.4034V35.8774C46.1104 34.7602 45.4336 34.2017 44.08 34.2017C43.3868 34.2017 42.6978 34.3607 42.0128 34.6787C41.3279 34.9967 40.704 35.4656 40.1414 36.0853V33.3821C41.389 32.3955 42.869 31.9021 44.5815 31.9021ZM42.7467 40.4887C42.7467 40.9046 42.8772 41.2389 43.1381 41.4917C43.4072 41.7445 43.7375 41.8709 44.1289 41.8709C44.7894 41.8709 45.4499 41.5692 46.1104 40.9657V37.9568C45.2705 38.2422 44.61 38.5113 44.1289 38.764C43.6559 39.0168 43.3053 39.2737 43.077 39.5346C42.8568 39.7956 42.7467 40.1136 42.7467 40.4887Z" fill="#212121"/>
<path d="M59.1126 31.9021C59.5122 31.9021 59.9036 31.9918 60.2868 32.1712C60.6782 32.3506 61.1308 32.6523 61.6445 33.0764L60.5682 35.7062C59.6956 35.0538 58.9944 34.7276 58.4643 34.7276C57.9995 34.7276 57.5388 34.9029 57.0822 35.2536C56.6337 35.5961 56.2708 36.0527 55.9935 36.6235C55.7244 37.1943 55.5899 37.7651 55.5899 38.3359V43.5466H52.5809V32.1223H55.5899V35.0334H55.6388C56.1852 33.9326 56.7356 33.1375 57.2901 32.6482C57.8446 32.1508 58.4521 31.9021 59.1126 31.9021Z" fill="#212121"/>
<path d="M64.6535 26.8382C65.1183 26.8382 65.5179 27.0054 65.8522 27.3397C66.1865 27.6741 66.3537 28.0736 66.3537 28.5384C66.3537 28.9869 66.1865 29.3865 65.8522 29.7371C65.526 30.0796 65.1265 30.2509 64.6535 30.2509C64.1969 30.2509 63.7973 30.0796 63.4548 29.7371C63.1205 29.3865 62.9533 28.9869 62.9533 28.5384C62.9533 28.0655 63.1246 27.6659 63.4671 27.3397C63.8095 27.0054 64.205 26.8382 64.6535 26.8382ZM66.158 32.1223V43.5466H63.149V32.1223H66.158Z" fill="#212121"/>
<path d="M73.3746 31.9021C74.8424 31.9021 75.9637 32.2161 76.7383 32.844C77.513 33.4637 77.9003 34.3321 77.9003 35.4493V41.0391C77.9003 41.4713 78.0757 41.6874 78.4263 41.6874C78.5731 41.6874 78.7769 41.6262 79.0379 41.5039C79.307 41.3735 79.5312 41.2267 79.7106 41.0636V42.8005C78.6587 43.4447 77.6965 43.7668 76.824 43.7668C76.2858 43.7668 75.8699 43.6771 75.5763 43.4977C75.2909 43.3183 75.0911 43.0003 74.977 42.5436C73.8272 43.3591 72.6734 43.7668 71.5154 43.7668C70.6918 43.7668 69.9824 43.4895 69.3871 42.935C68.8 42.3805 68.5065 41.7159 68.5065 40.9413C68.5065 39.9546 68.8 39.1758 69.3871 38.605C69.9743 38.0342 71.0017 37.5368 72.4695 37.1128L74.9036 36.4034V35.8774C74.9036 34.7602 74.2268 34.2017 72.8731 34.2017C72.18 34.2017 71.491 34.3607 70.806 34.6787C70.121 34.9967 69.4972 35.4656 68.9346 36.0853V33.3821C70.1822 32.3955 71.6622 31.9021 73.3746 31.9021ZM71.5399 40.4887C71.5399 40.9046 71.6704 41.2389 71.9313 41.4917C72.2004 41.7445 72.5307 41.8709 72.9221 41.8709C73.5826 41.8709 74.2431 41.5692 74.9036 40.9657V37.9568C74.0637 38.2422 73.4032 38.5113 72.9221 38.764C72.4491 39.0168 72.0985 39.2737 71.8702 39.5346C71.65 39.7956 71.5399 40.1136 71.5399 40.4887Z" fill="#212121"/>
<path d="M84.4809 26.4591V43.5466H81.472V26.4591H84.4809Z" fill="#212121"/>
<path d="M91.6976 31.9021C93.1654 31.9021 94.2866 32.2161 95.0613 32.844C95.8359 33.4637 96.2233 34.3321 96.2233 35.4493V41.0391C96.2233 41.4713 96.3986 41.6874 96.7492 41.6874C96.896 41.6874 97.0999 41.6262 97.3608 41.5039C97.6299 41.3735 97.8542 41.2267 98.0336 41.0636V42.8005C96.9816 43.4447 96.0194 43.7668 95.1469 43.7668C94.6087 43.7668 94.1928 43.6771 93.8993 43.4977C93.6139 43.3183 93.4141 43.0003 93.2999 42.5436C92.1502 43.3591 90.9963 43.7668 89.8384 43.7668C89.0148 43.7668 88.3054 43.4895 87.7101 42.935C87.123 42.3805 86.8294 41.7159 86.8294 40.9413C86.8294 39.9546 87.123 39.1758 87.7101 38.605C88.2972 38.0342 89.3247 37.5368 90.7924 37.1128L93.2265 36.4034V35.8774C93.2265 34.7602 92.5497 34.2017 91.1961 34.2017C90.503 34.2017 89.8139 34.3607 89.1289 34.6787C88.444 34.9967 87.8202 35.4656 87.2575 36.0853V33.3821C88.5051 32.3955 89.9852 31.9021 91.6976 31.9021ZM89.8628 40.4887C89.8628 40.9046 89.9933 41.2389 90.2543 41.4917C90.5233 41.7445 90.8536 41.8709 91.245 41.8709C91.9055 41.8709 92.566 41.5692 93.2265 40.9657V37.9568C92.3866 38.2422 91.7261 38.5113 91.245 38.764C90.7721 39.0168 90.4214 39.2737 90.1931 39.5346C89.9729 39.7956 89.8628 40.1136 89.8628 40.4887Z" fill="#212121"/>
<path d="M102.596 32.1223V39.1922C102.596 39.9342 102.779 40.5009 103.146 40.8923C103.521 41.2756 104.015 41.4672 104.626 41.4672C105.132 41.4672 105.617 41.3123 106.082 41.0024C106.547 40.6926 106.922 40.2563 107.207 39.6937V32.1223H110.216V43.5466H107.207V41.9932C106.123 43.1756 104.948 43.7668 103.685 43.7668C102.461 43.7668 101.475 43.3672 100.724 42.5681C99.9743 41.7689 99.5992 40.7252 99.5992 39.4368V32.1223H102.596Z" fill="#212121"/>
<path d="M119.757 31.9021C120.156 31.9021 120.548 31.9918 120.931 32.1712C121.323 32.3506 121.775 32.6523 122.289 33.0764L121.212 35.7062C120.34 35.0538 119.639 34.7276 119.109 34.7276C118.644 34.7276 118.183 34.9029 117.726 35.2536C117.278 35.5961 116.915 36.0527 116.638 36.6235C116.369 37.1943 116.234 37.7651 116.234 38.3359V43.5466H113.225V32.1223H116.234V35.0334H116.283C116.829 33.9326 117.38 33.1375 117.934 32.6482C118.489 32.1508 119.096 31.9021 119.757 31.9021Z" fill="#212121"/>
<path d="M127.805 31.9021C129.273 31.9021 130.394 32.2161 131.169 32.844C131.944 33.4637 132.331 34.3321 132.331 35.4493V41.0391C132.331 41.4713 132.506 41.6874 132.857 41.6874C133.004 41.6874 133.208 41.6262 133.468 41.5039C133.738 41.3735 133.962 41.2267 134.141 41.0636V42.8005C133.089 43.4447 132.127 43.7668 131.255 43.7668C130.716 43.7668 130.301 43.6771 130.007 43.4977C129.722 43.3183 129.522 43.0003 129.408 42.5436C128.258 43.3591 127.104 43.7668 125.946 43.7668C125.122 43.7668 124.413 43.4895 123.818 42.935C123.231 42.3805 122.937 41.7159 122.937 40.9413C122.937 39.9546 123.231 39.1758 123.818 38.605C124.405 38.0342 125.432 37.5368 126.9 37.1128L129.334 36.4034V35.8774C129.334 34.7602 128.657 34.2017 127.304 34.2017C126.611 34.2017 125.922 34.3607 125.237 34.6787C124.552 34.9967 123.928 35.4656 123.365 36.0853V33.3821C124.613 32.3955 126.093 31.9021 127.805 31.9021ZM125.971 40.4887C125.971 40.9046 126.101 41.2389 126.362 41.4917C126.631 41.7445 126.961 41.8709 127.353 41.8709C128.013 41.8709 128.674 41.5692 129.334 40.9657V37.9568C128.494 38.2422 127.834 38.5113 127.353 38.764C126.88 39.0168 126.529 39.2737 126.301 39.5346C126.081 39.7956 125.971 40.1136 125.971 40.4887Z" fill="#212121"/>
<path fill-rule="evenodd" clip-rule="evenodd" d="M182.311 0V5.74631L161.434 5.746L161.435 89.0678H155.869L155.868 5.746L134.993 5.74631V0L182.311 0Z" fill="#212121"/>
<path d="M169.925 31.9021C171.393 31.9021 172.514 32.2161 173.289 32.844C174.063 33.4637 174.451 34.3321 174.451 35.4493V41.0391C174.451 41.4713 174.626 41.6874 174.977 41.6874C175.123 41.6874 175.327 41.6262 175.588 41.5039C175.857 41.3735 176.081 41.2267 176.261 41.0636V42.8005C175.209 43.4447 174.247 43.7668 173.374 43.7668C172.836 43.7668 172.42 43.6771 172.127 43.4977C171.841 43.3183 171.641 43.0003 171.527 42.5436C170.377 43.3591 169.224 43.7668 168.066 43.7668C167.242 43.7668 166.533 43.4895 165.937 42.935C165.35 42.3805 165.057 41.7159 165.057 40.9413C165.057 39.9546 165.35 39.1758 165.937 38.605C166.525 38.0342 167.552 37.5368 169.02 37.1128L171.454 36.4034V35.8774C171.454 34.7602 170.777 34.2017 169.423 34.2017C168.73 34.2017 168.041 34.3607 167.356 34.6787C166.671 34.9967 166.048 35.4656 165.485 36.0853V33.3821C166.732 32.3955 168.212 31.9021 169.925 31.9021ZM168.09 40.4887C168.09 40.9046 168.221 41.2389 168.482 41.4917C168.751 41.7445 169.081 41.8709 169.472 41.8709C170.133 41.8709 170.793 41.5692 171.454 40.9657V37.9568C170.614 38.2422 169.953 38.5113 169.472 38.764C168.999 39.0168 168.649 39.2737 168.42 39.5346C168.2 39.7956 168.09 40.1136 168.09 40.4887Z" fill="#212121"/>
<path d="M181.031 26.4591V43.5466H178.022V26.4591H181.031Z" fill="#212121"/>
<path d="M187.245 26.4591V43.5466H184.236V26.4591H187.245Z" fill="#212121"/>
<path d="M195.465 31.9021C197.144 31.9021 198.473 32.4403 199.452 33.5167C200.431 34.5931 200.92 36.0813 200.92 37.9812V38.4338H192.835C192.957 39.4531 193.336 40.24 193.972 40.7945C194.616 41.3408 195.497 41.614 196.614 41.614C197.332 41.614 198.021 41.4917 198.681 41.2471C199.35 40.9943 200.039 40.6151 200.749 40.1095V42.3479C199.411 43.2938 197.789 43.7668 195.88 43.7668C194.078 43.7668 192.606 43.2245 191.465 42.14C190.323 41.0554 189.752 39.6121 189.752 37.81C189.752 36.0731 190.278 34.6542 191.33 33.5534C192.39 32.4525 193.768 31.9021 195.465 31.9021ZM198.094 36.6113C198.013 35.7795 197.76 35.1313 197.336 34.6665C196.912 34.1935 196.329 33.957 195.587 33.957C194.828 33.957 194.217 34.1813 193.752 34.6298C193.295 35.0783 193.006 35.7388 192.884 36.6113H198.094Z" fill="#212121"/>
<path d="M209.824 31.9021C210.224 31.9021 210.615 31.9918 210.999 32.1712C211.39 32.3506 211.843 32.6523 212.356 33.0764L211.28 35.7062C210.407 35.0538 209.706 34.7276 209.176 34.7276C208.711 34.7276 208.251 34.9029 207.794 35.2536C207.345 35.5961 206.983 36.0527 206.705 36.6235C206.436 37.1943 206.302 37.7651 206.302 38.3359V43.5466H203.293V32.1223H206.302V35.0334H206.351C206.897 33.9326 207.447 33.1375 208.002 32.6482C208.556 32.1508 209.164 31.9021 209.824 31.9021Z" fill="#212121"/>
<path d="M215.365 26.8382C215.83 26.8382 216.23 27.0054 216.564 27.3397C216.898 27.6741 217.066 28.0736 217.066 28.5384C217.066 28.9869 216.898 29.3865 216.564 29.7371C216.238 30.0796 215.838 30.2509 215.365 30.2509C214.909 30.2509 214.509 30.0796 214.167 29.7371C213.832 29.3865 213.665 28.9869 213.665 28.5384C213.665 28.0655 213.836 27.6659 214.179 27.3397C214.521 27.0054 214.917 26.8382 215.365 26.8382ZM216.87 32.1223V43.5466H213.861V32.1223H216.87Z" fill="#212121"/>
<path d="M226.594 31.9021C227.817 31.9021 228.792 32.3058 229.517 33.1131C230.251 33.9122 230.618 34.9682 230.618 36.281V43.5466H227.621V36.5868C227.621 35.8448 227.442 35.2577 227.083 34.8255C226.733 34.3933 226.251 34.1772 225.64 34.1772C225.175 34.1772 224.739 34.3158 224.331 34.5931C223.923 34.8622 223.475 35.3147 222.986 35.9508V43.5466H219.977V32.1223H222.986V33.7246C223.54 33.0723 224.107 32.6075 224.686 32.3302C225.273 32.0448 225.909 31.9021 226.594 31.9021Z" fill="#212121"/>
<path d="M235.132 26.8382C235.596 26.8382 235.996 27.0054 236.33 27.3397C236.665 27.6741 236.832 28.0736 236.832 28.5384C236.832 28.9869 236.665 29.3865 236.33 29.7371C236.004 30.0796 235.605 30.2509 235.132 30.2509C234.675 30.2509 234.275 30.0796 233.933 29.7371C233.599 29.3865 233.431 28.9869 233.431 28.5384C233.431 28.0655 233.603 27.6659 233.945 27.3397C234.288 27.0054 234.683 26.8382 235.132 26.8382ZM236.636 32.1223V43.5466H233.627V32.1223H236.636Z" fill="#212121"/>
</svg>
